<?xml version="1.0" standalone="no"?>
<!DOCTYPE svg PUBLIC "-//W3C//DTD SVG 20010904//EN"
 "http://www.w3.org/TR/2001/REC-SVG-20010904/DTD/svg10.dtd">
<svg version="1.0" xmlns="http://www.w3.org/2000/svg"
 width="1280.000000pt" height="973.000000pt" viewBox="0 0 1280.000000 973.000000"
 preserveAspectRatio="xMidYMid meet">
<metadata>
Created by potrace 1.15, written by Peter Selinger 2001-2017
</metadata>
<g transform="translate(0.000000,973.000000) scale(0.100000,-0.100000)"
fill="#000000" stroke="none">
<path d="M0 9685 l0 -43 83 -7 c45 -3 116 -5 157 -3 l75 3 8 -150 c9 -164 4
-326 -12 -367 -6 -17 -6 -29 1 -36 14 -14 23 -301 14 -412 l-8 -85 -38 -18
c-21 -10 -49 -28 -63 -41 -37 -34 -168 -47 -197 -21 -20 18 -20 15 -20 -375
l0 -392 28 7 c15 4 35 7 45 7 9 0 17 3 17 9 0 5 9 9 19 9 10 0 21 7 24 15 4 8
23 23 44 34 30 15 48 17 80 12 23 -5 46 -4 50 0 5 5 10 -22 11 -61 2 -39 -1
-70 -6 -70 -4 0 -6 -24 -4 -52 8 -115 8 -374 0 -390 -4 -9 -4 -19 1 -22 10 -7
9 -286 -2 -303 -4 -6 -3 -15 3 -18 12 -8 3 -46 -14 -58 -6 -4 -21 -5 -33 -2
-12 3 -48 -1 -81 -9 -69 -16 -140 -11 -164 11 -17 15 -18 1 -18 -278 l0 -294
132 1 c73 1 145 -2 159 -8 29 -10 34 -37 10 -54 -13 -10 -13 -15 -2 -28 8 -9
10 -26 6 -45 -4 -18 -2 -32 5 -36 9 -6 9 -10 -1 -17 -11 -7 -11 -11 -1 -15 16
-6 16 -30 -1 -36 -8 -3 -9 -8 -2 -18 7 -9 12 -157 14 -401 3 -371 3 -388 -15
-394 -11 -3 -32 -11 -49 -19 -69 -30 -193 -49 -231 -34 l-24 9 0 -285 0 -285
48 -1 c26 0 97 -1 157 -2 l110 -2 -1 -355 c0 -195 -1 -364 -3 -375 -2 -11 0
-35 2 -52 4 -26 2 -33 -11 -33 -15 -1 -15 -3 2 -15 17 -13 18 -18 6 -39 -7
-14 -10 -36 -6 -50 3 -14 9 -38 12 -52 10 -38 -30 -71 -95 -80 -28 -4 -51 -10
-51 -15 0 -5 -9 -9 -21 -9 -11 0 -29 -4 -39 -10 -13 -7 -31 -5 -60 5 -24 8
-44 15 -46 15 -2 0 -4 -135 -4 -301 l0 -300 155 2 c85 1 157 1 159 -2 2 -2 6
-242 7 -534 4 -522 3 -530 -16 -533 -11 -2 -48 -17 -81 -32 -61 -28 -62 -28
-135 -14 -41 8 -77 14 -81 14 -5 0 -8 -126 -8 -280 l0 -280 159 0 158 0 6 -68
c8 -80 9 -982 2 -982 -3 0 -14 5 -25 12 -16 11 -23 9 -40 -9 -12 -14 -27 -20
-36 -16 -9 3 -19 1 -23 -5 -4 -7 -20 -13 -37 -14 -16 -1 -34 -5 -39 -9 -10 -7
-52 -1 -103 15 -22 7 -22 7 -22 -103 l0 -111 6400 0 6400 0 0 120 0 120 -27 0
c-16 0 -36 -6 -45 -14 -22 -16 -81 -9 -74 10 6 16 -13 31 -23 18 -11 -16 -41
-15 -47 1 -5 13 -9 13 -23 -4 -16 -18 -20 -18 -47 -5 l-29 14 0 518 0 517 158
3 157 3 0 294 c0 327 4 310 -67 280 -47 -20 -117 -20 -133 0 -7 9 -20 13 -30
10 -10 -3 -28 6 -46 22 l-29 27 0 507 c0 279 2 510 5 513 3 3 71 6 150 8 l145
3 3 297 c2 291 2 296 -18 291 -10 -3 -24 -11 -30 -18 -13 -16 -151 -9 -161 7
-4 6 -26 11 -50 12 l-44 1 0 535 0 535 153 3 152 3 0 284 c0 312 4 292 -56
263 -34 -16 -205 3 -212 23 -2 5 -10 9 -17 9 -20 0 -26 182 -21 640 2 217 4
410 5 428 l1 32 150 0 150 0 0 274 0 274 -35 -9 c-39 -11 -66 -9 -77 5 -4 6
-17 5 -33 -2 -27 -12 -110 -8 -135 8 -18 11 -21 160 -3 167 11 4 11 8 1 20
-13 16 -21 373 -8 373 3 0 2 23 -4 51 -8 41 -7 56 5 77 12 23 12 33 2 62 -17
47 -13 172 4 166 8 -3 13 2 13 14 0 11 -4 20 -9 20 -6 0 -10 8 -11 18 0 9 -3
38 -6 65 -4 33 -3 47 6 47 7 0 10 7 6 15 -6 16 -3 17 139 18 67 1 80 -1 83
-15 2 -11 -3 -15 -15 -13 -21 3 -45 -13 -37 -26 7 -12 -24 -69 -39 -69 -8 0
-7 -4 3 -10 13 -9 12 -12 -4 -25 -11 -8 -16 -15 -10 -16 5 0 20 -2 33 -5 13
-2 35 3 49 12 24 16 26 15 38 -1 13 -18 8 -49 -7 -39 -5 3 -9 -2 -9 -11 0 -9
-4 -14 -9 -11 -13 9 -23 -26 -11 -38 7 -7 16 -7 30 2 20 12 37 1 25 -18 -3 -6
1 -7 9 -4 14 5 16 55 16 423 0 392 -5 468 -27 435 -5 -6 -29 -12 -55 -12 -41
-1 -47 1 -52 24 -4 14 -11 22 -17 19 -7 -5 -6 -12 2 -21 12 -15 0 -23 -31 -22
-8 1 -25 -2 -37 -6 -15 -5 -23 -3 -23 4 0 7 -7 10 -15 6 -9 -3 -15 0 -15 9 0
8 -7 15 -15 15 -10 0 -15 10 -15 28 0 29 22 39 45 21 13 -10 36 9 54 43 7 14
21 28 31 31 25 6 20 33 -11 63 -28 27 -29 27 -50 8 -19 -17 -22 -17 -32 -3 -7
9 -16 16 -21 15 -5 -1 -12 9 -17 22 -6 16 -5 22 5 22 7 0 19 6 25 14 10 12 8
19 -10 37 -13 13 -17 24 -11 28 15 9 18 67 4 84 -9 10 -10 17 -2 22 5 3 10 11
10 16 0 6 -4 7 -10 4 -6 -3 -10 -2 -10 4 0 9 31 31 44 31 3 0 3 -7 0 -15 -4
-8 -1 -15 6 -15 6 0 9 4 5 9 -3 5 0 13 6 16 5 4 8 13 5 20 -2 7 10 21 30 31
19 11 32 24 29 31 -8 23 13 14 33 -13 16 -23 20 -24 25 -10 4 10 1 19 -8 22
-8 4 -15 10 -15 16 0 5 -6 15 -13 22 -11 11 -16 11 -32 0 -10 -8 -16 -17 -12
-20 9 -9 -37 -44 -57 -44 -9 0 -16 7 -16 16 0 8 -4 12 -10 9 -14 -9 -13 8 2
23 9 9 7 17 -8 33 -14 16 -15 23 -6 26 6 3 9 10 5 16 -4 6 -8 26 -10 44 -3 28
0 33 17 33 11 0 20 5 20 11 0 6 -7 8 -17 5 -10 -4 -14 -4 -10 0 4 4 2 13 -4
20 -9 11 -7 15 5 20 10 4 22 0 30 -11 21 -29 31 1 11 32 -17 26 -17 26 9 21
14 -3 26 -1 26 3 0 5 -5 9 -12 9 -6 0 -3 9 7 20 22 25 12 39 -11 15 -10 -10
-25 -14 -38 -11 -12 3 -24 6 -28 6 -4 0 -5 12 -4 28 2 15 4 41 5 59 1 25 5 31
16 27 11 -5 13 -10 5 -19 -11 -14 7 -14 48 0 26 9 27 15 7 41 -14 19 -14 19
-15 -1 0 -16 -2 -17 -9 -6 -5 8 -7 20 -4 28 4 9 -4 13 -23 13 -27 0 -27 1 -11
17 9 10 36 18 61 19 39 3 47 -1 62 -24 10 -15 17 -35 16 -45 -1 -14 4 -17 21
-11 22 6 22 6 2 -10 -20 -16 -20 -16 5 -13 14 1 31 6 38 10 16 11 34 -1 25
-16 -4 -7 0 -7 10 1 9 8 21 11 27 7 7 -4 10 26 10 90 l0 95 -6400 0 -6400 -1
0 -44z m6379 -612 c-1 -535 -3 -573 -18 -568 -10 3 -31 -1 -47 -9 -43 -21
-151 -27 -191 -11 -19 8 -39 12 -46 9 -7 -2 -21 4 -31 15 -16 18 -17 55 -16
538 1 285 1 527 1 538 -1 11 1 30 4 42 5 22 9 23 158 25 83 2 160 1 170 -1 17
-3 18 -34 16 -578z m399 573 c2 -3 4 -24 4 -48 0 -24 -1 -276 -1 -561 l-2
-518 -27 -11 c-15 -6 -32 -10 -39 -9 -6 1 -31 -3 -55 -8 -38 -9 -47 -7 -80 14
-39 26 -96 33 -115 14 -6 -6 -16 -8 -21 -5 -8 5 -8 626 -1 1118 0 9 7 18 16
20 24 5 315 -1 321 -6z m369 2 c7 -6 16 -7 22 -4 5 3 12 -6 14 -21 3 -16 5
-259 4 -542 l-2 -513 -34 -24 c-23 -15 -43 -21 -58 -18 -13 4 -23 2 -23 -3 0
-5 -42 -10 -92 -10 -51 0 -103 -4 -114 -8 -16 -5 -22 -2 -26 12 -4 17 0 917 5
1063 2 63 3 65 29 65 14 0 29 3 33 6 10 10 229 7 242 -3z m430 3 c10 -1 12
-124 13 -540 l0 -539 -32 -24 c-27 -19 -47 -23 -106 -24 -47 -1 -84 4 -103 13
-16 8 -47 14 -69 15 l-40 0 1 546 c0 301 2 549 4 552 3 4 297 6 332 1z m408
-3 c8 -9 14 -157 8 -206 -5 -46 -8 -52 -18 -38 -7 9 -19 16 -27 16 -8 0 -29
11 -48 25 -18 14 -36 23 -38 20 -3 -3 -3 -6 -1 -8 2 -2 22 -16 44 -32 22 -17
49 -35 60 -40 15 -8 21 -22 23 -58 2 -28 -1 -47 -7 -47 -6 0 -11 -8 -11 -17
-1 -16 -2 -16 -10 -2 -6 11 -18 15 -34 12 -26 -5 -30 -1 -51 62 -5 13 -9 16
-12 7 -6 -16 24 -82 37 -82 6 0 28 -18 51 -41 33 -33 38 -43 28 -55 -10 -12
-10 -15 2 -12 11 3 14 -44 15 -292 0 -292 -1 -324 -16 -315 -4 2 -16 -2 -26
-10 -10 -8 -29 -15 -41 -15 -13 0 -23 -4 -23 -8 0 -15 -115 -7 -147 11 -18 9
-47 19 -64 21 l-33 3 -1 232 c-1 129 2 234 7 237 5 3 5 11 -1 18 -16 19 -9
605 7 615 12 7 320 7 327 -1z m410 3 c16 -2 7 -522 -9 -538 -3 -3 -11 -1 -18
4 -7 6 -26 13 -42 17 -15 4 -26 9 -23 12 5 6 -34 45 -104 104 -38 32 -40 37
-35 75 4 36 4 37 -5 13 -16 -41 -51 -37 -75 7 -10 19 -22 35 -26 35 -4 0 -7
55 -7 122 0 162 -7 157 187 153 81 -2 152 -3 157 -4z m208 0 c26 -1 46 -4 46
-8 -6 -37 31 -49 62 -22 12 10 35 19 51 19 15 0 31 0 34 0 5 0 8 -203 4 -235
-1 -5 -1 -62 0 -125 2 -137 3 -684 1 -720 -1 -20 -9 -29 -34 -38 -18 -7 -43
-12 -55 -12 -11 0 -23 -4 -26 -8 -4 -7 -122 1 -171 12 -11 2 -23 5 -26 5 -27
4 -33 114 -26 536 0 17 -1 113 -2 215 -1 102 -1 190 -1 195 1 6 1 49 1 97 l-2
87 28 3 c15 2 37 2 48 1 11 -1 41 -2 68 -2z m433 -2 c76 -1 146 -3 154 -5 13
-3 15 -31 15 -175 0 -159 -1 -172 -20 -185 -11 -8 -20 -19 -20 -24 0 -5 -6
-15 -12 -21 -10 -10 -13 -10 -14 2 -1 7 -1 18 0 23 1 5 -5 4 -13 -3 -20 -17
-5 -47 31 -64 21 -10 27 -8 39 8 13 17 14 -10 12 -209 -2 -125 -5 -229 -9
-231 -7 -5 -4 -34 5 -56 4 -9 6 -49 4 -90 -3 -69 -5 -74 -28 -81 -148 -41
-152 -42 -172 -29 -12 7 -31 14 -42 16 -12 1 -36 5 -53 9 -22 5 -33 4 -33 -3
0 -6 -4 -11 -9 -11 -7 0 -8 934 -1 1035 0 11 -1 36 -3 55 -3 32 8 54 23 45 4
-2 69 -5 146 -6z m1356 1 l26 0 1 -550 0 -550 -27 0 c-15 0 -45 -10 -67 -22
-41 -22 -108 -26 -130 -8 -6 5 -25 10 -43 12 -17 1 -41 9 -52 18 -20 15 -21
26 -23 184 -2 93 0 189 3 215 3 25 3 70 -1 99 -3 29 -3 55 0 57 2 3 4 49 3
102 0 54 -1 154 -2 223 -1 69 -1 146 -1 172 l1 47 88 3 c48 2 112 2 142 1 30
-1 67 -2 82 -3z m278 -1 c112 1 150 -2 151 -12 1 -14 1 -91 0 -262 0 -66 0
-145 0 -175 0 -30 0 -59 -1 -65 -2 -5 -2 -14 -1 -19 3 -13 1 -515 -2 -555 -2
-28 -7 -36 -29 -42 -15 -4 -34 -14 -43 -22 -15 -16 -55 -12 -55 5 0 5 -8 4
-19 -1 -22 -12 -85 -6 -141 14 -22 8 -40 11 -41 7 0 -4 -4 1 -8 11 -4 10 -5
134 -3 275 2 141 4 268 4 282 0 14 5 28 11 32 9 6 9 10 1 16 -6 4 -10 37 -10
79 1 60 5 75 21 87 18 14 18 15 2 16 -14 0 -16 5 -11 26 5 19 4 25 -5 20 -14
-9 -17 119 -6 239 2 21 -1 35 -8 36 -7 0 -3 4 8 8 11 5 23 7 27 4 4 -2 75 -4
158 -4z m916 -3 c19 5 26 1 33 -17 5 -15 5 -26 -1 -30 -7 -4 -7 -9 0 -13 11
-7 11 -24 -1 -43 -5 -7 -4 -13 0 -13 5 0 7 -131 5 -292 -2 -161 -3 -308 -2
-325 0 -19 -4 -33 -11 -33 -8 0 -8 -4 1 -15 13 -15 17 -226 5 -245 -3 -5 -1
-19 5 -30 21 -39 -26 -72 -67 -47 -6 4 -33 0 -59 -8 -62 -19 -89 -19 -118 0
-13 9 -28 15 -32 14 -5 -1 -12 0 -16 1 -5 1 -14 3 -20 4 -9 1 -13 23 -13 73 0
39 -3 74 -7 78 -3 4 -3 19 1 33 3 15 6 70 5 122 -1 59 3 98 10 102 8 5 7 8 -1
8 -7 0 -13 5 -13 11 0 6 7 9 15 5 8 -3 15 -1 15 4 0 6 -7 10 -15 10 -21 0 -24
81 -4 88 5 2 6 9 2 15 -4 7 -9 37 -10 67 -2 30 -3 60 -4 65 0 6 2 20 5 32 2
13 2 25 -2 27 -4 2 -7 19 -5 38 9 162 10 227 4 230 -4 2 -6 20 -3 40 5 43 20
49 114 46 32 -1 60 1 63 4 3 3 26 1 51 -3 26 -5 57 -6 70 -3z m-8448 -546 l1
-550 -23 0 c-12 0 -41 -9 -64 -20 -45 -22 -121 -26 -181 -10 -20 5 -48 12 -63
15 l-28 5 0 555 0 555 179 0 178 0 1 -550z m404 128 c5 -350 3 -429 -8 -457
-12 -29 -12 -37 0 -56 11 -16 13 -39 8 -96 l-7 -74 -35 -6 c-19 -4 -59 -12
-88 -18 -53 -11 -142 -5 -142 10 0 4 -21 11 -46 15 l-46 7 6 36 c3 20 6 267 6
549 l0 512 174 0 173 0 5 -422z m408 -128 c0 -533 -1 -550 -19 -560 -11 -5
-30 -10 -42 -10 -13 0 -34 -11 -48 -24 -24 -23 -29 -24 -81 -14 -30 6 -72 10
-93 10 -22 -1 -47 3 -58 9 -18 9 -19 29 -19 574 l0 565 180 0 180 0 0 -550z
m400 -2 l0 -553 -27 -1 c-16 -1 -53 -3 -83 -4 -30 -1 -63 -6 -73 -12 -11 -5
-49 -7 -91 -3 l-73 7 -7 294 c-3 162 -3 414 0 559 l7 265 174 0 173 0 0 -552z
m394 530 c3 -13 6 -257 6 -544 0 -504 -1 -521 -20 -539 -10 -9 -39 -19 -64
-20 -24 -2 -53 -8 -64 -14 -11 -6 -21 -8 -24 -6 -2 3 -42 11 -89 18 l-84 13
-3 557 -2 557 169 0 c166 0 169 0 175 -22z m143 12 c15 5 82 8 148 7 l120 -2
0 -549 c1 -375 -2 -549 -9 -551 -6 -1 -38 -11 -71 -22 -38 -12 -71 -17 -87
-12 -14 4 -32 3 -39 -2 -43 -27 -134 12 -141 60 -4 24 -3 1072 1 1078 0 1 12
-2 26 -7 15 -6 35 -6 52 0z m677 -533 c1 -297 -1 -542 -4 -546 -19 -30 -200
-52 -241 -31 -10 6 -39 11 -64 12 l-45 1 1 548 c0 414 3 549 12 552 7 3 86 4
176 3 l165 -1 0 -538z m401 533 c4 -6 7 -254 8 -551 l2 -540 -48 -25 c-27 -13
-65 -24 -85 -24 -20 0 -44 -5 -52 -10 -10 -6 -22 -4 -38 6 -12 8 -28 14 -35
12 -27 -5 -86 14 -92 30 -8 19 -7 1091 1 1104 8 12 331 10 339 -2z m3640 0 c4
-6 7 -253 8 -550 l2 -540 -35 -6 c-62 -10 -72 -15 -65 -31 4 -13 3 -14 -10 -3
-16 13 -64 19 -175 23 l-65 2 0 504 c0 396 2 504 12 508 17 7 17 23 0 23 -8 0
-13 9 -11 23 1 12 3 30 3 40 1 15 16 17 165 17 101 0 167 -4 171 -10z m140 0
c3 -5 15 -6 28 -1 12 4 72 8 134 9 l111 2 0 -560 -1 -560 -21 0 c-12 0 -33 -6
-48 -14 -15 -8 -42 -14 -60 -15 -18 0 -40 -1 -48 -1 -30 -1 -75 13 -83 26 -4
7 -14 11 -21 8 -8 -3 -25 5 -39 18 -25 24 -25 25 -26 190 0 92 -1 170 -2 175
-1 4 -1 10 0 13 1 3 3 154 5 335 5 393 4 368 19 377 17 11 45 10 52 -2z m1459
-1 c-2 -4 3 -12 10 -18 10 -9 12 -20 6 -40 -4 -15 -3 -35 2 -44 7 -13 5 -19
-7 -23 -12 -5 -13 -10 -4 -20 14 -17 21 -234 8 -250 -5 -6 -5 -24 0 -42 13
-45 11 -534 -2 -550 -7 -8 -7 -16 -1 -20 5 -4 10 -28 11 -53 1 -41 -2 -48 -23
-58 -14 -6 -34 -11 -44 -11 -11 0 -20 -4 -20 -9 0 -16 -53 -17 -89 -3 -25 10
-36 11 -41 2 -5 -9 -17 -9 -45 -1 -21 6 -42 8 -46 6 -4 -3 -14 -2 -23 1 -15 6
-17 48 -15 294 1 36 1 153 2 260 0 107 5 198 10 201 5 4 4 23 -2 45 -15 52
-14 94 2 95 10 0 10 2 0 6 -16 6 -17 86 -2 114 6 12 7 28 3 37 -9 21 -7 40 8
69 10 21 16 22 158 20 82 -1 146 -5 144 -8z m801 -19 c4 -17 11 -30 16 -30 6
0 7 -5 4 -11 -12 -18 -13 -63 -4 -81 7 -13 6 -18 -3 -18 -8 0 -9 -3 -3 -8 11
-8 13 -42 4 -57 -9 -15 -9 -75 0 -75 14 0 7 -34 -13 -62 -14 -22 -17 -36 -10
-65 4 -21 7 -41 6 -45 -1 -5 3 -8 9 -8 5 0 7 -5 4 -10 -4 -6 -11 -8 -16 -5 -5
4 -9 0 -9 -9 0 -8 6 -17 13 -19 7 -4 3 -8 -10 -12 -14 -5 -23 -15 -23 -27 0
-10 5 -16 10 -13 6 3 11 -1 11 -9 3 -35 5 -41 17 -38 13 2 15 -8 6 -32 -3 -9
-14 -16 -23 -16 -14 -1 -14 -2 2 -11 9 -6 15 -14 12 -20 -4 -5 0 -11 7 -14 15
-6 19 -131 5 -152 -5 -7 -5 -19 0 -25 4 -7 8 -61 8 -120 l1 -106 -36 -11 c-79
-23 -250 -9 -250 21 0 4 -6 8 -14 8 -17 0 -31 34 -21 50 4 6 2 16 -3 23 -6 7
-9 60 -8 120 1 59 -1 107 -4 107 -3 0 -1 24 4 54 6 30 14 52 18 50 4 -3 8 -1
8 4 0 6 -7 12 -15 16 -17 6 -20 42 -4 51 6 5 4 11 -7 19 -11 9 -13 15 -6 20 6
4 9 13 6 20 -3 7 2 16 10 19 19 7 16 65 -3 76 -15 9 -8 96 9 116 10 12 10 18
0 30 -6 8 -9 19 -5 26 6 8 10 8 16 -2 4 -7 11 -11 14 -7 3 3 -5 17 -19 31 -23
23 -25 31 -22 92 3 42 9 71 18 76 10 7 11 12 0 29 -7 11 -8 20 -2 20 5 0 7 6
4 14 -8 20 20 26 50 11 15 -8 24 -10 21 -5 -4 6 -2 10 2 10 5 0 14 -9 21 -21
7 -11 18 -19 25 -16 7 2 17 -8 24 -22 11 -24 11 -22 6 17 -4 28 -2 42 6 42 6
0 11 6 11 14 0 9 9 13 25 11 14 -1 27 0 29 4 2 3 18 7 34 8 26 2 32 -2 37 -27z
m401 8 c3 -10 0 -27 -7 -39 -10 -19 -9 -21 5 -16 26 10 19 -8 -9 -23 -14 -7
-25 -17 -25 -21 0 -5 -12 -20 -27 -34 -15 -14 -22 -25 -16 -25 7 0 10 -7 7
-15 -7 -18 34 -36 65 -28 18 5 21 1 21 -29 0 -19 -6 -40 -12 -47 -10 -11 -10
-13 0 -7 7 5 12 1 13 -11 7 -115 6 -183 0 -183 -14 0 -20 -39 -7 -43 7 -2 11
-44 11 -130 1 -69 -3 -123 -7 -121 -4 3 -3 -7 2 -21 17 -44 12 -82 -15 -111
-31 -33 -31 -42 -2 -46 20 -3 22 -9 23 -62 2 -63 -4 -74 -48 -93 -16 -7 -28
-16 -28 -20 0 -12 -109 -13 -138 -1 -15 6 -46 10 -69 9 -30 -2 -43 2 -44 11
-7 64 -6 387 2 383 5 -4 9 -2 9 4 0 5 -4 12 -8 15 -4 2 -7 40 -5 83 2 43 3 85
2 93 -5 94 -3 167 4 177 5 7 5 18 1 25 -12 19 -13 107 -2 114 5 4 5 10 0 17
-14 17 4 60 20 51 10 -6 10 -4 2 7 -24 30 -27 60 -7 75 10 9 12 13 6 9 -26
-13 -13 32 13 45 31 17 146 18 152 1 6 -17 20 -13 27 8 8 25 83 24 91 -1z
m-11684 -225 c2 -131 2 -381 0 -555 l-3 -317 -35 1 c-22 1 -46 -7 -66 -22 -41
-31 -134 -41 -144 -16 -3 9 -14 16 -25 16 -10 0 -30 5 -44 12 l-25 11 -2 286
c-4 517 1 804 15 813 6 4 83 8 169 8 l158 0 2 -237z m392 229 c2 -4 6 -251 7
-547 l2 -540 -44 -17 c-24 -9 -61 -17 -81 -17 -20 -1 -40 -5 -43 -11 -8 -13
-63 -13 -101 -1 -16 5 -41 12 -56 15 l-28 6 0 560 0 560 169 0 c94 0 172 -4
175 -8z m411 -537 l0 -539 -46 -17 c-57 -20 -205 -34 -222 -21 -7 5 -29 12
-49 16 l-38 7 0 550 0 549 178 -2 177 -3 0 -540z m400 5 l0 -535 -36 -6 c-20
-3 -49 -15 -64 -27 -39 -31 -142 -30 -204 1 l-45 23 2 494 c1 272 2 516 2 543
l0 47 173 -2 172 -3 0 -535z m405 5 c0 -495 -1 -535 -17 -535 -9 0 -35 -8 -57
-19 -82 -38 -128 -52 -140 -43 -6 5 -18 10 -26 10 -8 0 -35 4 -60 9 l-45 9 -3
552 -2 552 175 0 175 0 0 -535z m402 463 c2 -40 1 -154 -2 -253 -3 -99 -3
-297 0 -440 3 -143 4 -272 2 -287 -4 -24 -12 -30 -55 -43 -28 -8 -61 -22 -75
-31 -16 -10 -49 -16 -96 -17 -69 -2 -74 0 -99 28 l-26 30 -1 481 c0 265 3 509
6 543 l7 61 167 0 168 0 4 -72z m5390 -279 c26 -17 48 -37 48 -45 0 -8 6 -14
14 -14 7 0 30 -19 51 -41 l37 -41 -43 -20 c-63 -29 -126 -29 -150 1 -10 13
-16 27 -13 32 3 5 0 9 -5 9 -7 0 -11 29 -11 75 0 50 4 75 12 75 6 0 33 -14 60
-31z m181 -171 c12 -6 30 -20 40 -31 9 -11 20 -17 23 -14 10 10 33 -19 33 -39
-1 -11 0 -113 0 -229 1 -115 2 -215 1 -221 0 -6 -26 -24 -57 -41 -61 -32 -141
-43 -154 -21 -6 9 -16 9 -41 1 -42 -12 -75 -1 -87 29 -11 29 -12 468 -1 468 5
0 6 8 3 18 -3 13 4 22 22 30 24 11 27 10 32 -8 3 -11 12 -20 19 -20 12 0 12
-4 -1 -24 -13 -20 -14 -25 -1 -35 11 -10 16 -9 23 1 4 7 21 19 37 26 l29 13
-21 15 c-12 8 -26 13 -31 10 -7 -4 -51 28 -51 38 0 1 16 3 35 4 19 1 52 10 72
21 45 24 48 24 76 9z m-3148 -1678 c0 -289 -1 -532 -3 -540 -5 -25 -51 -38
-157 -45 -92 -7 -105 -5 -149 15 l-48 23 7 41 c5 23 8 64 7 91 -7 349 -6 865
3 865 5 0 4 4 -3 9 -8 5 -12 21 -10 37 4 38 21 40 207 34 l146 -5 0 -525z
m402 527 c2 -3 5 -251 6 -552 l1 -547 -30 -12 c-77 -33 -120 -42 -164 -33 -25
4 -54 9 -65 11 -11 1 -37 8 -57 15 -31 10 -38 17 -39 39 0 34 0 85 1 632 l1
446 31 2 c18 2 33 4 34 5 5 4 276 -2 281 -6z m409 0 c5 -3 9 -231 9 -533 l0
-528 -43 -31 c-40 -28 -50 -30 -128 -30 -62 0 -87 4 -93 14 -5 8 -16 11 -25 8
-8 -3 -28 -1 -44 6 l-28 12 1 515 c1 283 5 529 9 545 l7 30 163 -1 c90 0 167
-3 172 -7z m412 -485 c1 -272 -2 -508 -6 -525 -6 -23 -17 -35 -38 -42 -16 -5
-31 -12 -34 -16 -11 -13 -73 -28 -98 -23 -15 3 -38 1 -52 -4 -26 -10 -70 3
-70 20 0 5 -11 6 -24 2 -18 -4 -25 -1 -29 13 -4 14 -2 1059 2 1071 1 1 79 1
174 0 l172 -3 3 -493z m403 270 c0 -125 1 -258 1 -297 0 -38 -1 -179 -2 -313
-2 -237 -2 -242 -23 -254 -12 -6 -26 -17 -32 -25 -19 -24 -206 -13 -265 17
-19 9 -18 -21 -26 561 -5 369 -3 502 5 518 12 21 17 21 176 20 l165 0 1 -227z
m404 -306 l0 -529 -26 -27 c-19 -18 -45 -29 -89 -38 -35 -6 -66 -9 -70 -7 -4
2 -22 7 -41 10 -103 15 -122 26 -113 61 4 14 2 24 -5 24 -7 0 -10 154 -10 513
1 281 3 515 6 519 2 4 81 7 176 5 l172 -2 0 -529z m399 518 c3 -8 5 -256 5
-552 l1 -538 -43 -12 c-50 -14 -187 -13 -205 2 -8 5 -32 12 -55 15 l-42 6 -3
548 -2 548 169 -1 c137 -1 171 -4 175 -16z m407 -1 c1 -10 2 -256 3 -547 1
-462 -1 -529 -14 -533 -8 -3 -26 -10 -40 -16 -63 -27 -96 -35 -129 -31 -65 8
-96 16 -113 31 -9 8 -24 13 -35 11 -17 -3 -18 18 -19 542 -2 400 1 547 10 552
6 4 84 8 174 8 147 0 162 -2 163 -17z m413 -489 c1 -276 -1 -524 -2 -552 l-4
-50 -46 -2 c-26 0 -55 -1 -65 -1 -10 0 -21 -7 -24 -15 -5 -14 -12 -14 -126 0
-10 1 -22 7 -25 12 -4 5 -16 11 -27 12 -11 2 -23 9 -27 15 -7 10 -14 304 -9
331 1 5 2 178 1 383 l0 373 177 -2 177 -3 0 -501z m386 496 c13 -8 15 -78 16
-527 0 -285 -3 -528 -8 -541 -5 -14 -26 -31 -54 -43 -40 -18 -60 -20 -150 -16
-59 3 -111 10 -119 17 -12 10 -14 59 -15 278 0 147 0 274 -1 282 -4 63 3 549
8 554 10 10 307 7 323 -4z m417 -385 c4 -614 4 -698 -3 -704 -3 -3 -33 -14
-67 -25 -80 -25 -144 -24 -188 3 -19 12 -41 21 -50 21 -35 0 -37 36 -37 565
-1 285 1 522 4 526 2 4 79 6 172 5 l167 -1 2 -390z m398 385 c9 -15 9 -686 -1
-701 -5 -8 -7 -21 -6 -31 4 -25 -19 -34 -34 -13 -13 18 -44 15 -44 -5 0 -5 -6
-10 -13 -10 -16 0 -41 -27 -50 -52 -4 -10 -2 -18 4 -18 5 0 13 8 16 18 4 9 16
24 27 34 19 15 23 15 49 -4 15 -11 34 -17 42 -14 17 6 16 17 17 -173 l1 -134
-54 -15 c-93 -25 -241 -15 -275 20 -12 13 -18 76 -15 167 1 43 2 43 30 38 34
-7 40 2 46 81 2 27 9 61 15 76 5 15 10 43 10 61 0 19 11 67 24 107 30 90 42
147 28 133 -10 -11 -67 -197 -79 -260 -4 -22 -8 -42 -8 -45 -1 -3 -5 -27 -9
-55 -11 -72 -16 -85 -30 -85 -9 0 -16 24 -21 73 -13 118 -13 147 -3 147 5 0 6
4 3 10 -3 5 -6 56 -5 112 0 57 1 112 1 123 0 11 -1 103 -3 205 -2 102 -2 192
0 201 3 13 27 16 167 17 91 1 167 -3 170 -8z m403 -6 c15 -15 16 -54 2 -54 -7
0 -7 -6 -1 -18 6 -11 10 -142 10 -318 0 -164 1 -301 1 -304 2 -8 2 -116 1
-247 l-1 -122 -42 -12 c-24 -7 -55 -21 -70 -31 -16 -11 -28 -17 -28 -15 0 2
-18 1 -40 -3 -23 -4 -43 -3 -46 2 -3 5 -23 7 -43 3 -46 -8 -56 3 -65 65 -8 52
-15 1008 -8 1045 l4 25 157 -2 c107 -2 160 -6 169 -14z m390 12 c13 -5 17 -18
17 -63 0 -32 -4 -61 -10 -65 -6 -5 -6 -8 1 -8 9 0 12 -74 12 -272 0 -150 1
-366 2 -480 3 -248 7 -239 -106 -243 -60 -2 -78 1 -97 16 -13 10 -42 19 -64
20 -75 5 -73 -7 -72 300 0 151 0 338 0 417 -1 79 1 148 4 153 4 5 1 9 -5 9 -6
0 -9 4 -6 9 4 5 7 44 8 86 0 41 5 78 10 81 4 3 6 10 3 15 -4 5 -4 12 -1 17 5
8 279 16 304 8z m178 -10 c3 -7 18 -13 34 -14 22 0 27 3 23 15 -5 13 8 14 90
11 l97 -3 -1 -30 c0 -16 0 -116 2 -221 1 -105 -1 -196 -5 -202 -3 -6 -2 -13 3
-16 6 -4 6 -18 1 -35 -4 -16 -6 -32 -3 -34 8 -9 10 -257 2 -257 -5 0 -5 -10
-1 -22 4 -13 7 -83 7 -157 l-1 -135 -29 -8 c-84 -24 -236 -11 -287 24 l-28 19
0 152 c0 84 1 177 2 207 1 55 -1 368 -3 426 -1 17 5 42 11 54 10 19 10 25 -1
34 -11 8 -14 33 -11 96 1 47 4 90 6 96 6 16 86 17 92 0z m563 0 c6 -4 11 -2
11 4 0 7 13 10 32 8 37 -5 56 -39 32 -59 -10 -9 -11 -15 -3 -25 13 -16 4 -34
-18 -34 -13 0 -13 -3 -3 -15 9 -10 9 -15 1 -15 -6 0 -11 -5 -11 -11 0 -5 4 -8
8 -5 4 2 14 1 21 -4 11 -6 14 -54 15 -215 1 -114 -2 -209 -7 -212 -4 -3 -3
-11 4 -19 9 -11 9 -14 0 -14 -7 0 -9 -5 -4 -12 8 -14 10 -37 13 -191 1 -59 -2
-103 -9 -111 -8 -10 -7 -22 3 -47 18 -45 10 -110 -15 -116 -11 -3 -19 -9 -19
-13 0 -5 -9 -6 -20 -3 -11 3 -20 1 -20 -4 0 -16 -175 -7 -224 12 -25 10 -43
21 -41 26 3 4 6 55 6 113 1 63 6 106 11 106 6 0 5 7 -2 15 -8 10 -11 30 -7 59
4 27 2 47 -5 54 -12 12 -10 13 14 16 18 2 21 25 4 32 -20 8 -23 114 -3 115 9
0 9 2 0 6 -8 3 -11 14 -7 28 3 12 2 25 -4 28 -5 4 -7 39 -4 79 4 82 4 108 -1
158 -2 19 0 40 3 45 4 6 4 37 0 70 -4 33 -3 68 1 77 6 10 5 19 -1 23 -19 11
-10 23 13 17 21 -5 21 -5 4 12 -9 10 -15 21 -13 25 6 9 230 6 245 -3z m388 -2
c6 -17 33 -19 33 -3 0 6 9 9 20 6 11 -3 20 0 20 6 0 7 7 3 15 -7 13 -17 15
-64 13 -284 -1 -145 -6 -266 -11 -269 -4 -2 -2 -11 4 -19 11 -14 13 -69 5
-154 -2 -14 1 -38 6 -55 4 -17 4 -31 -1 -33 -5 -2 -6 -17 -2 -35 4 -18 5 -76
3 -130 -4 -97 -4 -98 -34 -113 -23 -12 -52 -14 -131 -11 -56 3 -118 8 -137 12
l-35 7 -2 261 c-2 199 0 263 10 269 6 4 7 8 2 8 -14 0 -19 107 -5 115 8 5 8
10 0 20 -7 9 -10 49 -8 109 2 53 -1 96 -6 96 -5 0 -3 6 3 13 6 8 8 17 4 21 -4
4 3 9 15 13 27 7 27 13 2 46 -17 21 -19 34 -13 69 4 24 6 46 5 51 -1 4 48 7
109 6 85 0 111 -4 116 -15z m451 3 c6 -5 12 -6 12 -3 0 4 9 -1 19 -11 17 -16
22 -37 21 -90 0 -10 0 -36 0 -57 0 -22 -5 -43 -12 -47 -9 -6 -9 -11 0 -21 7
-9 11 -61 11 -149 -1 -74 -1 -190 0 -259 0 -69 0 -154 0 -190 0 -36 1 -107 2
-159 2 -75 0 -96 -12 -99 -8 -2 -23 -8 -34 -13 -51 -24 -175 -30 -175 -9 0 4
-23 8 -52 9 -28 0 -54 3 -57 7 -3 3 -6 134 -7 291 -1 241 1 287 14 300 12 11
12 17 3 22 -16 10 -25 151 -10 151 8 0 8 4 1 13 -12 15 -13 285 -1 309 8 15
26 17 137 16 70 0 133 -5 140 -11z m360 -5 c3 -10 8 -9 23 4 12 11 27 14 44
10 24 -6 25 -10 27 -79 1 -39 0 -85 -1 -102 -2 -49 -2 -57 1 -130 2 -38 1 -77
-3 -85 -3 -8 -3 -43 0 -77 4 -35 3 -63 -1 -63 -4 0 -5 -7 -2 -15 4 -8 1 -15
-5 -15 -18 0 -13 -18 6 -22 16 -3 16 -5 2 -18 -13 -11 -13 -17 -4 -27 13 -12
14 -91 1 -111 -4 -7 -4 -12 1 -12 4 0 8 -69 7 -153 -1 -223 3 -203 -46 -211
-24 -3 -60 -9 -82 -12 -27 -5 -41 -2 -47 7 -7 12 -9 12 -9 1 0 -11 -13 -12
-62 -7 -35 4 -69 12 -76 19 -21 20 -19 178 2 205 8 11 8 15 -1 18 -8 3 -11 14
-7 29 3 13 2 24 -4 24 -6 0 -8 29 -5 73 9 150 9 208 3 212 -10 6 0 55 11 55 5
0 9 4 9 10 0 5 -7 7 -16 3 -13 -5 -15 -1 -10 23 4 17 6 55 6 84 -3 253 -4 250
16 265 13 11 15 15 4 13 -11 -2 -16 8 -18 36 -6 66 -5 66 119 63 82 -1 114 -6
117 -15z m-11285 -3 c61 13 62 13 65 -73 1 -56 -2 -82 -10 -88 -10 -6 -10 -8
-1 -8 9 0 11 -29 8 -112 -6 -143 -6 -141 -17 -155 -7 -9 -5 -15 5 -19 13 -5
15 -24 14 -110 0 -58 -5 -108 -9 -110 -4 -3 -4 -13 0 -22 9 -20 9 -208 0 -218
-4 -3 -3 -16 1 -28 8 -22 6 -100 -3 -115 -4 -5 -15 -7 -26 -4 -11 3 -27 0 -35
-7 -8 -6 -18 -9 -23 -6 -5 3 -17 -3 -26 -13 -18 -20 -38 -20 -101 -2 -16 5
-44 8 -61 6 -62 -6 -59 -35 -60 550 l-1 535 84 0 c55 0 83 -4 83 -11 0 -8 4
-8 13 -1 17 14 50 20 60 12 5 -4 23 -5 40 -1z m426 -18 c10 -12 23 -21 28 -21
12 0 11 -179 -1 -198 -4 -7 -3 -19 3 -25 8 -11 14 -100 11 -167 -4 -101 -4
-132 1 -136 9 -5 -2 -96 -13 -111 -6 -7 -5 -14 2 -18 6 -4 11 -32 11 -63 0
-31 0 -66 0 -77 1 -111 -5 -215 -12 -215 -5 0 -17 -8 -27 -18 -9 -9 -35 -23
-57 -30 -43 -14 -167 -20 -200 -10 -11 4 -28 7 -38 7 -16 1 -17 21 -16 303 0
218 4 305 12 310 8 5 8 11 2 16 -8 5 -12 188 -6 282 0 8 0 51 -2 95 -2 66 1
82 15 90 9 6 73 9 143 9 114 -2 127 -4 144 -23z m444 20 c9 -1 3 -203 -7 -219
-4 -7 -3 -12 1 -12 14 0 10 -817 -4 -831 -13 -13 -70 -36 -113 -46 -45 -10
-148 -7 -187 6 l-38 13 1 424 c1 325 4 427 14 439 7 9 8 15 2 15 -11 0 -16
177 -6 204 5 13 29 14 167 11 89 -2 166 -4 170 -4z m394 -4 c3 -4 7 -65 10
-137 3 -101 1 -130 -9 -130 -10 0 -10 -2 -1 -8 9 -6 12 -100 10 -397 -2 -357
-3 -390 -19 -387 -9 1 -25 -9 -36 -23 -27 -34 -58 -44 -128 -40 -52 3 -152 20
-160 28 -8 8 -6 1085 2 1098 6 10 321 5 331 -4z m188 2 c6 -1 21 0 35 0 14 1
32 1 40 1 8 1 44 2 80 4 l65 4 2 -209 c2 -145 -1 -209 -9 -209 -7 0 -7 -4 0
-12 12 -15 11 -586 -1 -605 -5 -7 -4 -13 1 -13 6 0 6 -14 -1 -36 -12 -40 -53
-65 -104 -63 -39 1 -126 20 -138 30 -6 4 -17 4 -24 0 -7 -5 -25 -5 -40 -2
l-26 7 -1 540 c-1 296 3 546 7 556 7 13 19 15 56 12 27 -3 53 -5 58 -5z m627
-44 c-1 -27 -2 -90 -1 -140 5 -478 4 -874 -3 -893 -4 -13 -12 -20 -18 -17 -5
3 -18 1 -28 -4 -11 -6 -55 -10 -98 -10 -43 -1 -96 -1 -118 -1 -21 -1 -48 6
-61 14 l-23 15 0 545 0 545 175 -2 176 -2 -1 -50z m394 43 c12 -19 15 -76 4
-83 -6 -4 -7 -12 -3 -18 5 -7 9 -229 9 -494 l2 -483 -30 0 c-16 0 -27 -4 -24
-9 8 -12 -41 -23 -65 -16 -10 4 -24 3 -31 -1 -25 -15 -160 -3 -185 17 -7 6
-12 46 -12 102 -5 291 -3 516 3 544 4 18 4 37 1 43 -5 9 -7 251 -3 355 0 6 -1
16 -3 24 -6 22 35 29 188 30 97 1 144 -3 149 -11z m413 -10 c4 -12 6 -33 4
-47 -2 -14 -3 -46 -2 -71 0 -25 1 -249 1 -499 1 -491 4 -465 -54 -478 -16 -3
-28 -9 -28 -14 0 -5 -24 -9 -53 -9 -29 0 -58 -5 -65 -12 -7 -7 -15 -8 -24 -1
-7 5 -33 10 -58 11 -30 1 -49 7 -58 19 -10 14 -13 125 -11 563 1 300 4 548 6
553 2 4 78 7 169 7 160 0 165 -1 173 -22z m408 -283 c0 -191 -4 -305 -10 -305
-6 0 -6 -4 0 -12 6 -8 10 -110 11 -240 l1 -226 -52 -24 c-89 -42 -117 -49
-141 -36 -11 6 -21 10 -21 9 0 -3 -24 5 -77 24 -26 9 -39 10 -47 2 -8 -8 -11
-7 -11 3 0 8 0 184 0 390 0 284 3 376 13 382 9 6 9 10 1 16 -7 4 -11 60 -11
165 l-1 157 173 0 172 0 0 -305z m403 -229 l0 -533 -25 4 c-14 3 -38 -3 -57
-15 -18 -11 -39 -17 -46 -15 -7 3 -18 0 -26 -6 -7 -6 -47 -9 -102 -6 l-89 3
-2 551 -1 551 174 0 174 0 0 -534z m-4032 397 c2 -89 0 -123 -9 -123 -7 0 -8
-4 -2 -12 5 -7 8 -62 6 -123 -2 -60 -3 -117 -3 -125 2 -32 2 -176 2 -195 -1
-11 -2 -47 -2 -80 0 -33 -1 -80 -2 -105 -1 -25 1 -73 5 -107 8 -62 8 -63 -16
-63 -13 0 -48 -12 -78 -27 -57 -28 -131 -35 -151 -15 -7 7 -25 12 -40 12 -15
0 -28 5 -28 11 0 6 -6 9 -14 6 -12 -5 -14 54 -11 401 2 224 5 414 7 422 1 8
-1 40 -6 71 -4 31 -5 65 -2 75 6 20 63 51 73 40 11 -10 43 15 43 34 0 26 13
29 125 27 l100 -2 3 -122z m9310 -2074 l-3 -550 -55 -19 c-67 -24 -155 -24
-235 -2 l-60 17 -3 547 -2 548 172 3 c95 1 176 4 181 5 4 1 6 -246 5 -549z
m1519 545 l91 -7 1 -539 c1 -504 0 -539 -17 -544 -9 -3 -40 -16 -68 -30 -60
-28 -72 -29 -95 -8 -13 12 -22 13 -38 5 -30 -16 -63 -13 -91 9 -14 11 -30 20
-37 20 -13 0 -6 1059 7 1073 18 21 124 29 247 21z m491 -549 l2 -551 -77 -17
c-80 -18 -115 -15 -145 11 -12 10 -30 13 -56 10 -77 -11 -72 -52 -72 558 l0
544 173 -2 172 -3 3 -550z m396 544 c3 -2 6 -250 8 -550 l3 -546 -40 -12 c-94
-27 -308 -19 -317 12 -2 7 -2 259 0 561 l3 548 169 -4 c93 -2 171 -6 174 -9z
m-5250 -39 c8 -54 2 -1003 -7 -1016 -4 -7 -24 -15 -44 -19 -21 -4 -44 -12 -52
-18 -22 -19 -109 -21 -136 -3 -13 9 -35 16 -48 16 -13 0 -32 6 -42 14 -19 14
-20 32 -19 526 1 282 5 515 10 520 9 9 121 15 266 15 l67 0 5 -35z m272 29 c6
-10 24 -9 101 7 l32 6 1 -554 0 -555 -37 -1 c-57 -2 -113 -13 -113 -22 0 -10
-28 -6 -63 8 -16 7 -32 12 -37 12 -5 0 -21 5 -37 12 -15 6 -33 10 -39 9 -18
-2 -21 93 -22 601 -1 432 0 468 16 477 24 14 189 14 198 0z m541 -521 l3 -528
-26 0 c-14 0 -44 -11 -67 -24 -36 -21 -52 -24 -112 -20 -135 8 -129 6 -139 55
-10 51 -14 1006 -4 1030 5 14 30 16 175 15 l168 -1 2 -527z m410 -11 l3 -538
-28 -11 c-44 -19 -255 -8 -319 17 -10 3 -13 121 -13 540 l0 535 178 -2 177 -3
2 -538z m401 5 l-3 -539 -65 -16 c-36 -9 -81 -17 -100 -17 -19 0 -50 0 -69 0
-18 0 -39 4 -45 9 -6 5 -22 11 -36 13 l-25 3 -3 543 -2 542 176 0 175 0 -3
-538z m403 506 c6 -201 -2 -1033 -10 -1041 -37 -37 -223 -61 -264 -34 -12 7
-34 17 -49 21 l-28 6 0 540 0 540 175 0 175 0 1 -32z m409 -510 l0 -543 -48
-1 c-27 0 -67 -8 -90 -17 -43 -17 -103 -23 -115 -10 -4 4 -24 7 -45 7 -33 1
-38 5 -49 36 -13 39 -18 733 -6 948 l6 122 174 0 173 0 0 -542z m803 310 c10
-330 8 -830 -2 -847 -13 -20 -245 -40 -272 -23 -10 7 -30 12 -44 12 l-25 0 0
545 0 545 168 0 169 0 6 -232z m407 -306 l0 -539 -57 -28 c-52 -25 -64 -27
-142 -23 -60 4 -97 11 -121 25 -34 19 -35 21 -35 81 1 34 2 278 3 542 l2 480
175 0 175 0 0 -538z m410 59 c0 -263 -3 -505 -6 -539 -7 -68 -16 -75 -106 -87
-26 -3 -50 -11 -54 -17 -10 -15 -110 0 -155 24 l-39 20 0 539 0 539 180 0 180
0 0 -479z m-10835 459 c4 -6 13 -7 23 -1 9 4 75 8 146 7 155 -1 144 13 138
-186 -2 -74 -3 -155 -2 -180 1 -25 2 -73 3 -108 1 -34 -2 -62 -6 -62 -9 0 -2
-194 7 -209 4 -5 2 -12 -3 -16 -6 -3 -8 -12 -4 -20 3 -9 -1 -15 -8 -15 -10 0
-10 -3 -1 -12 13 -13 17 -114 4 -122 -4 -2 -7 -27 -6 -55 0 -28 -3 -51 -8 -51
-4 0 -11 0 -15 0 -5 0 -9 5 -9 10 -3 20 -4 21 -14 15 -7 -4 -5 -14 5 -28 8
-12 15 -27 15 -33 0 -18 -57 -35 -135 -40 -112 -8 -187 28 -158 75 6 10 9 22
5 26 -7 7 -12 994 -5 1008 6 10 21 9 28 -3z m644 -21 c6 -18 11 -40 11 -50 0
-14 7 -19 25 -19 l25 0 0 -103 c0 -69 -4 -108 -12 -116 -9 -10 -9 -12 -1 -7 9
5 12 -47 12 -216 0 -123 1 -292 1 -376 1 -149 -2 -178 -20 -167 -5 3 -26 -4
-47 -15 -48 -25 -145 -27 -220 -3 l-53 17 -1 90 c-1 50 0 96 1 101 2 6 3 58 2
117 0 85 3 108 15 112 8 3 11 10 8 16 -4 6 -10 8 -15 5 -9 -5 -13 622 -5 635
2 4 62 8 134 9 l129 1 11 -31z m469 -56 c1 -57 -1 -83 -9 -83 -8 0 -8 -4 -1
-12 14 -18 13 -826 -1 -853 -16 -30 -39 -44 -74 -45 -17 0 -35 -5 -38 -11 -4
-6 -22 -8 -40 -6 -18 3 -38 0 -45 -7 -8 -8 -13 -8 -18 0 -4 6 -29 12 -56 12
-28 1 -53 7 -58 14 -7 10 -6 119 1 253 0 6 -1 48 -3 95 -7 165 -7 360 -1 370
3 5 3 10 -2 10 -4 0 -8 59 -8 130 1 109 4 134 18 150 13 16 15 25 7 40 -5 10
-10 20 -10 23 0 2 75 3 168 3 l167 -1 3 -82z m388 80 c10 -3 13 -66 13 -276 1
-150 2 -370 4 -490 1 -119 -2 -217 -6 -217 -4 0 -3 -9 3 -19 7 -14 7 -22 -1
-27 -6 -3 -9 -15 -6 -25 4 -13 0 -19 -11 -19 -10 0 -30 -7 -46 -15 -15 -8 -33
-12 -38 -9 -6 4 -34 -2 -64 -12 -51 -17 -55 -17 -89 -1 -20 9 -44 17 -54 17
-10 0 -22 8 -27 18 -8 18 -16 1035 -8 1064 5 16 22 18 161 17 86 0 162 -3 169
-6z m224 -8 c16 -19 44 -19 60 0 10 12 29 15 74 13 l61 -3 2 -532 c1 -293 -2
-533 -7 -533 -5 0 -11 6 -14 13 -5 10 -7 10 -12 0 -3 -7 -11 -13 -18 -13 -7 0
-30 -12 -52 -26 -34 -23 -44 -25 -94 -19 -148 17 -139 14 -145 48 -2 18 -5 50
-4 72 0 22 -2 252 -4 510 -3 259 -3 473 0 478 2 4 35 7 72 7 49 0 72 -4 81
-15z m591 8 c1 -4 2 -241 3 -527 l1 -518 -40 -21 c-40 -21 -64 -28 -100 -31
-11 0 -25 -8 -32 -16 -11 -13 -12 -13 -13 0 0 9 -5 21 -12 28 -9 9 -14 7 -24
-6 -11 -15 -15 -15 -67 1 l-54 17 -1 531 c-1 292 0 534 2 538 6 9 336 13 337
4z m405 -13 c1 -8 2 -19 3 -25 2 -10 2 -48 -2 -684 -2 -356 -2 -364 -22 -367
-54 -8 -123 -23 -147 -33 -21 -8 -31 -6 -50 7 -13 10 -33 17 -46 16 -13 -1
-29 7 -37 18 -7 11 -18 17 -24 14 -5 -4 -12 -2 -15 2 -5 8 -9 541 -7 925 l1
147 173 -2 c144 -3 172 -5 173 -18z m399 10 c6 -10 8 -178 2 -213 -2 -15 -2
-29 2 -31 3 -2 5 -60 4 -128 -2 -67 -3 -134 -2 -148 4 -177 2 -536 -3 -538
-116 -53 -221 -69 -289 -47 -54 18 -54 18 -49 125 1 30 2 64 1 75 -7 127 -7
514 0 532 5 13 5 23 1 23 -8 0 -7 323 2 345 4 11 38 13 166 13 88 0 162 -4
165 -8z m416 -32 c5 -201 8 -968 4 -988 -4 -16 -17 -30 -36 -39 -16 -7 -36
-20 -45 -28 -9 -9 -48 -20 -92 -26 -71 -9 -81 -8 -129 13 l-53 22 -1 182 c-1
222 -1 596 0 731 0 55 0 114 0 130 -1 17 -1 33 0 38 1 4 80 7 176 7 l175 0 1
-42z m401 18 c3 -14 5 -252 6 -529 l1 -505 -25 -17 c-13 -9 -28 -13 -33 -10
-5 2 -11 -1 -14 -9 -3 -7 -23 -17 -44 -20 -50 -9 -155 -7 -168 4 -5 4 -25 11
-42 15 l-33 6 5 512 c5 443 8 563 14 575 0 1 75 2 165 2 l164 0 4 -24z m292 9
c26 -14 31 -14 46 0 20 18 46 20 56 3 4 -7 9 -254 11 -549 l4 -537 -38 -14
c-22 -7 -79 -13 -134 -13 -78 0 -101 3 -116 18 -11 9 -29 17 -41 17 l-22 0 0
544 1 544 102 1 c74 1 110 -3 131 -14z m518 -53 c1 -37 2 -140 0 -230 l-3
-162 -27 6 c-15 4 -32 11 -38 16 -7 5 -23 4 -39 -2 -20 -8 -25 -14 -20 -28 5
-9 8 -24 9 -33 0 -9 5 -15 11 -13 5 2 15 -6 20 -18 6 -13 27 -31 47 -41 l37
-18 1 -221 c0 -121 2 -223 5 -228 7 -11 -58 -50 -103 -62 -99 -25 -117 -27
-150 -11 -19 9 -46 17 -60 18 -15 1 -30 3 -33 3 -5 2 -5 1081 0 1089 0 1 77 2
170 2 l169 1 4 -68z m218 51 c1 -17 1 -17 11 0 8 14 25 17 94 17 l85 0 1 -42
c2 -74 -1 -830 -4 -893 -2 -54 -4 -60 -24 -63 -27 -4 -28 -10 -8 -36 21 -27
19 -36 -7 -36 -13 0 -32 -7 -42 -15 -10 -8 -23 -12 -28 -9 -4 3 -11 -2 -14
-10 -8 -20 -86 -17 -131 6 -18 9 -46 19 -63 23 -27 6 -30 11 -31 43 -5 422 -4
478 14 505 21 32 22 41 2 33 -12 -4 -15 5 -15 52 -2 205 -2 306 -1 370 l1 72
80 0 c69 0 80 -2 80 -17z m602 -17 c4 -27 3 -980 -1 -1028 -1 -12 -10 -18 -28
-18 -16 0 -37 -7 -47 -15 -11 -8 -30 -15 -43 -15 -21 0 -22 3 -13 20 9 17 8
20 -14 20 -19 0 -23 4 -19 20 5 18 2 19 -28 14 -19 -3 -40 -7 -46 -10 -7 -2
-13 0 -13 5 0 4 -20 6 -44 4 -42 -4 -44 -3 -51 29 -8 33 -15 986 -7 1001 2 4
81 7 177 6 l173 -1 4 -32z m408 -498 c-1 -420 -3 -537 -14 -550 -16 -22 -93
-47 -131 -44 -46 5 -105 17 -161 32 l-52 15 0 532 c0 293 2 535 5 540 2 4 83
7 179 7 l174 0 0 -532z m400 500 c5 -331 -3 -1034 -11 -1044 -14 -17 -93 -34
-154 -33 -64 1 -166 24 -176 41 -4 7 -8 250 -9 540 l0 528 175 0 175 0 0 -32z
m2838 -2155 l4 -521 -22 -12 c-11 -6 -29 -9 -39 -5 -10 3 -29 -3 -45 -16 -22
-17 -36 -20 -90 -16 -35 3 -74 11 -87 18 -13 7 -28 13 -32 14 -5 0 -15 11 -22
25 -12 20 -14 119 -15 527 l0 502 153 4 c83 1 161 3 172 2 20 0 20 -8 23 -522z
m1212 -3 l0 -530 -27 -6 c-16 -3 -39 -10 -53 -17 -33 -15 -68 -16 -74 -2 -2 7
-21 12 -42 13 -21 1 -42 6 -47 11 -5 5 -16 7 -25 4 -10 -4 -13 -2 -8 5 5 9 0
9 -19 2 -38 -14 -42 -13 -50 18 -4 15 -7 250 -6 522 l0 495 113 6 c62 3 141 6
176 7 l62 2 0 -530z m400 470 c0 -30 1 -239 3 -465 2 -361 1 -413 -14 -441
-13 -27 -14 -36 -3 -55 20 -36 18 -87 -3 -93 -30 -8 -137 -20 -153 -17 -8 1
-25 2 -37 2 -13 -1 -23 4 -23 9 0 6 -11 10 -25 10 -14 0 -25 5 -25 11 0 6 -5
9 -12 7 -7 -3 -22 5 -35 16 l-23 20 0 521 c0 287 3 525 8 529 4 4 82 6 174 4
l168 -3 0 -55z m407 -478 c1 -529 1 -533 -20 -553 -11 -10 -35 -19 -51 -20
-17 -1 -51 -2 -76 -4 -25 -1 -47 1 -50 6 -3 4 -34 12 -69 16 -59 7 -65 10 -74
36 -7 22 -6 33 6 44 12 12 12 22 4 51 -7 24 -12 205 -14 500 l-3 462 172 -2
173 -3 2 -533z m403 29 c-1 -502 -2 -509 -22 -514 -14 -4 -18 -11 -13 -26 5
-15 -1 -23 -27 -34 -18 -9 -47 -15 -65 -15 -17 -1 -42 -6 -54 -13 -17 -9 -24
-9 -27 0 -2 6 -10 11 -18 11 -7 0 -33 9 -57 21 -42 21 -44 23 -55 90 -8 47
-12 220 -12 529 l0 460 175 0 176 0 -1 -509z m400 -31 c0 -475 -2 -540 -15
-540 -8 0 -23 -4 -33 -9 -9 -5 -36 -15 -59 -21 -37 -12 -45 -11 -78 10 -27 17
-44 21 -70 16 -29 -6 -39 -3 -58 18 -22 24 -24 36 -30 198 -4 95 -7 327 -7
515 l0 342 33 4 c17 2 96 5 175 5 l142 2 0 -540z m-11727 506 c3 -12 6 -238 6
-504 1 -428 -1 -486 -15 -507 -10 -15 -26 -25 -40 -25 -12 0 -26 -5 -29 -11
-4 -6 -13 -8 -21 -5 -8 3 -14 1 -14 -4 0 -6 -11 -10 -24 -10 -14 0 -28 -5 -31
-10 -7 -11 -53 -3 -72 12 -7 5 -23 11 -36 12 -12 2 -33 11 -45 22 l-22 18 0
512 c0 361 3 513 11 516 6 2 82 4 169 4 153 1 159 0 163 -20z m376 18 l32 -7
-4 -451 c-2 -248 -7 -467 -11 -486 -5 -19 -8 -59 -8 -87 l0 -53 -43 0 c-24 0
-46 -4 -49 -9 -3 -4 -35 -11 -72 -14 -58 -6 -73 -3 -108 16 -23 12 -44 27 -48
32 -4 6 -8 247 -8 538 l0 527 144 0 c79 0 158 -3 175 -6z m430 -506 c-1 -282
-4 -526 -8 -543 -5 -26 -13 -32 -56 -43 -75 -20 -258 7 -276 41 -9 16 -13
1032 -5 1046 2 3 81 8 175 9 l171 3 -1 -513z m398 499 c4 -5 9 -231 11 -503 3
-492 0 -534 -31 -534 -7 0 -25 -7 -40 -15 -15 -8 -49 -16 -76 -18 -26 -2 -55
-8 -65 -14 -12 -6 -33 -7 -57 -2 -21 5 -44 8 -51 7 -29 -7 -35 78 -37 585 l-2
509 170 -4 c93 -1 173 -7 178 -11z m2306 6 l127 -6 0 -517 0 -517 -22 -10
c-86 -39 -106 -47 -128 -49 -112 -12 -121 -12 -127 2 -3 8 -15 14 -28 14 -12
0 -28 6 -34 14 -14 16 -20 1043 -7 1064 8 14 40 14 219 5z m2720 0 c4 -3 61
-5 127 -4 l120 2 0 -524 0 -524 -47 -8 c-84 -14 -232 -10 -276 7 -25 10 -28
15 -28 62 0 28 -3 260 -5 515 -4 370 -2 466 8 473 16 9 92 11 101 1z m647
-518 l0 -524 -57 -18 c-73 -21 -152 -21 -224 1 l-56 17 -6 77 c-4 42 -7 277
-7 522 l0 445 175 2 175 1 0 -523z m408 178 c2 -340 2 -343 -18 -343 -30 0
-37 -29 -12 -49 16 -12 22 -27 21 -61 0 -25 3 -90 7 -146 l6 -101 -95 -31
c-53 -18 -106 -32 -118 -32 -38 0 -93 24 -121 53 l-28 28 0 508 c0 279 2 510
4 512 2 2 82 4 178 4 l173 0 3 -342z m238 337 c19 -8 30 -8 38 0 5 5 38 10 73
10 l63 0 -3 -521 -2 -520 -60 -26 c-33 -14 -75 -25 -93 -24 -18 0 -41 -3 -50
-8 -12 -6 -24 -5 -37 5 -10 8 -35 14 -54 14 -62 0 -63 1 -56 161 3 79 6 162 5
184 -1 22 -4 196 -6 388 l-5 347 80 0 c44 0 92 -5 107 -10z m574 -405 c0 -364
-2 -414 -15 -409 -19 8 -19 -13 0 -46 9 -16 14 -54 15 -103 l0 -78 -37 -16
c-64 -27 -132 -32 -178 -13 -16 7 -47 14 -68 15 -64 4 -67 17 -63 205 3 91 5
174 5 185 1 11 -2 167 -5 347 l-6 327 176 0 176 0 0 -414z m400 298 c2 -822 0
-917 -18 -927 -9 -6 -19 -11 -22 -11 -7 -1 -81 -25 -100 -32 -62 -24 -103 -23
-156 3 -49 24 -52 28 -56 68 -1 24 -2 262 0 529 l3 487 174 0 175 0 0 -117z
m815 -410 c0 -374 -3 -525 -11 -533 -6 -6 -35 -14 -64 -17 -30 -3 -60 -12 -68
-20 -10 -9 -23 -12 -36 -8 -12 4 -37 9 -56 11 -102 11 -107 14 -113 52 -4 19
-7 262 -7 539 l0 503 177 -2 177 -3 1 -522z m398 460 c9 -95 -3 -976 -13 -988
-16 -19 -98 -36 -151 -32 -70 7 -151 27 -166 43 -10 10 -13 129 -13 528 l0
516 169 0 168 0 6 -67z m-8298 47 c8 -13 48 -13 62 1 6 6 36 9 68 7 49 -2 59
-6 62 -23 2 -11 6 -240 9 -510 l6 -490 -50 -24 c-28 -13 -69 -24 -97 -25 -29
-1 -50 -6 -53 -14 -5 -16 -20 -15 -39 3 -8 9 -28 19 -44 22 -15 3 -37 15 -48
27 -21 22 -21 31 -21 457 -1 239 -1 467 0 507 l0 72 69 0 c39 0 73 -4 76 -10z
m600 -423 c0 -369 -2 -429 -15 -437 -13 -8 -13 -11 -1 -19 9 -6 12 -20 9 -42
-3 -19 -2 -46 3 -62 4 -15 6 -34 3 -42 -6 -15 -41 -30 -62 -26 -7 1 -24 -7
-39 -18 -21 -17 -36 -20 -87 -17 -68 5 -116 20 -116 37 0 6 -6 9 -14 6 -8 -3
-17 1 -20 9 -3 7 -6 246 -6 529 l0 515 172 -2 173 -3 0 -428z m406 23 c0 -223
-1 -456 -2 -518 -1 -112 -2 -112 -31 -133 -22 -16 -38 -20 -64 -16 -23 4 -34
2 -34 -6 0 -30 -74 -43 -91 -15 -4 6 -11 8 -17 4 -6 -3 -13 -2 -16 3 -3 5 -21
12 -41 15 -29 6 -36 12 -45 44 -6 23 -10 224 -10 535 l0 497 176 -2 175 -3 0
-405z m401 40 c-2 -358 -2 -409 1 -599 2 -87 1 -94 -18 -96 -11 -1 -46 -12
-77 -24 -41 -16 -70 -21 -100 -17 -114 14 -133 18 -140 29 -8 13 -10 73 -8
267 1 69 1 134 1 145 1 11 -1 165 -3 343 l-4 322 175 -2 176 -3 -3 -365z m414
346 c3 -14 4 -255 2 -538 l-5 -513 -49 -14 c-77 -21 -215 -15 -265 12 l-41 22
1 415 c1 228 1 466 1 528 l0 112 175 0 175 0 6 -24z m802 -494 c2 -564 5 -539
-58 -549 -17 -2 -42 -11 -57 -18 -17 -9 -31 -11 -37 -5 -5 5 -16 5 -26 0 -11
-6 -30 -6 -51 0 -19 6 -50 10 -70 10 -24 0 -39 5 -43 16 -10 26 -7 151 5 181
7 19 7 29 0 31 -8 3 -11 137 -11 428 l0 424 173 -2 172 -3 3 -513z m411 86 c0
-295 -3 -436 -11 -445 -7 -9 -7 -17 1 -26 11 -14 9 -162 -3 -174 -14 -14 -190
-52 -200 -44 -6 5 -28 12 -49 16 -20 4 -41 13 -45 20 -4 6 -17 17 -29 24 l-22
11 -1 525 0 525 179 0 180 0 0 -432z m401 370 c0 -35 1 -263 2 -508 1 -245 -1
-454 -5 -465 -5 -14 -30 -27 -84 -45 -84 -26 -104 -28 -200 -15 l-63 8 -1 66
c-2 74 -1 95 1 131 1 14 1 201 0 415 -1 215 -1 409 -1 433 l1 42 175 0 175 0
0 -62z m415 -320 c3 -211 5 -446 3 -522 l-3 -139 -48 -12 c-27 -7 -53 -17 -60
-24 -14 -14 -54 -14 -62 0 -4 6 -21 9 -39 8 -48 -3 -125 12 -141 28 -13 12
-15 92 -15 522 0 279 3 511 7 514 3 4 84 7 178 7 l173 0 7 -382z m405 -143 l0
-524 -37 -10 c-148 -37 -169 -40 -208 -31 -22 5 -55 10 -73 10 l-32 0 0 108
c0 59 -2 302 -4 540 l-3 432 178 0 179 0 0 -525z m400 5 l0 -518 -29 -12 c-17
-6 -71 -18 -122 -25 -91 -12 -151 -7 -172 14 -16 16 -26 112 -15 143 6 17 6
34 -1 47 -7 13 -11 161 -11 445 l0 425 175 0 175 -1 0 -518z m5660 -1624 l0
-514 -25 -31 c-42 -49 -155 -73 -218 -46 -10 4 -21 5 -24 1 -3 -3 -23 4 -44
16 -39 22 -39 22 -39 84 0 35 4 65 9 68 15 10 19 67 4 73 -11 4 -13 83 -13
424 l0 419 128 1 c101 0 201 8 220 18 1 0 2 -230 2 -513z m-806 -16 c-2 -367
-6 -525 -13 -534 -7 -8 -26 -16 -44 -19 -18 -3 -43 -8 -57 -12 -68 -18 -140
-2 -140 31 0 8 -10 14 -21 14 -12 0 -32 11 -45 26 l-24 25 0 487 0 487 166 2
c91 1 169 4 172 7 3 3 6 6 7 6 1 0 1 -234 -1 -520z m-11011 500 l98 0 -2 -415
c-1 -229 -5 -418 -10 -421 -12 -7 -11 -51 1 -59 5 -3 10 -29 10 -58 1 -29 2
-65 3 -82 2 -29 -1 -31 -78 -57 -80 -28 -89 -29 -210 -15 -16 2 -38 4 -47 5
-17 2 -18 35 -18 538 0 372 3 542 11 556 10 19 17 20 78 14 36 -3 110 -6 164
-6z m9792 -4 c10 -3 11 -889 1 -1001 -3 -46 -32 -72 -86 -79 -19 -3 -48 -9
-65 -14 -20 -6 -40 -5 -60 4 -16 7 -40 13 -53 14 -12 0 -25 7 -28 15 -4 8 -15
15 -25 15 -15 0 -19 8 -20 33 -1 59 2 152 7 184 3 18 0 51 -6 74 -8 30 -10
143 -4 400 7 354 7 358 28 361 26 4 297 -2 311 -6z m785 8 l35 -6 4 -503 3
-504 -26 -7 c-14 -3 -26 -11 -26 -16 0 -6 -7 -8 -15 -4 -8 3 -20 -3 -28 -14
-8 -11 -16 -18 -18 -15 -3 2 -18 1 -35 -4 -18 -5 -43 -3 -69 6 -22 7 -59 18
-82 23 -40 10 -42 13 -52 61 -12 56 -15 615 -4 847 l6 142 136 0 c75 0 152 -3
171 -6z m838 -514 c-3 -284 -8 -522 -12 -528 -18 -29 -167 -64 -181 -43 -2 5
-24 7 -47 5 -28 -3 -55 2 -78 14 l-35 17 0 123 c0 67 1 304 3 527 l2 405 176
-2 176 -1 -4 -517z m-10918 -20 l0 -529 -42 -11 c-24 -5 -63 -17 -88 -26 -64
-23 -98 -28 -113 -15 -8 6 -31 14 -53 19 l-39 8 -6 109 c-3 61 -7 305 -8 543
l-2 432 175 0 176 0 0 -530z m403 9 c6 -577 9 -548 -58 -565 -16 -4 -36 -11
-43 -17 -17 -13 -114 -10 -123 4 -4 7 -17 9 -28 6 -12 -3 -39 2 -61 11 l-40
17 0 517 c0 284 3 523 6 532 5 14 30 16 173 16 l168 0 6 -521z m280 510 c51 0
99 -4 105 -8 8 -5 11 -71 11 -226 0 -121 1 -245 1 -275 0 -30 2 -158 4 -285 1
-126 -1 -238 -6 -247 -4 -9 -25 -20 -46 -24 -20 -3 -49 -14 -63 -24 -15 -10
-46 -22 -70 -25 -24 -4 -47 -9 -51 -11 -3 -2 -9 0 -13 6 -3 5 -18 8 -33 5 -29
-5 -54 6 -51 21 1 5 0 11 -1 14 -1 3 -4 43 -6 90 -2 47 -4 92 -4 100 -1 21 -2
319 -1 355 1 39 1 226 -1 335 0 47 0 111 1 142 l1 57 48 4 c26 1 55 1 64 -1
10 -2 59 -3 111 -3z m478 2 l46 -1 1 -442 c0 -324 -3 -445 -11 -450 -8 -5 -9
-11 -2 -15 6 -5 11 -27 12 -50 2 -34 -3 -48 -22 -67 -14 -14 -25 -30 -25 -36
0 -5 -13 -10 -30 -10 -16 0 -30 -4 -30 -8 0 -11 -57 -30 -109 -37 -30 -4 -51
0 -67 10 -13 8 -32 15 -42 15 -17 0 -18 23 -20 545 l-1 544 92 3 c50 2 108 2
127 1 19 -1 56 -2 81 -2z m449 -522 l0 -532 -35 6 c-19 3 -37 2 -40 -2 -8 -14
-97 -22 -111 -10 -11 9 -18 8 -30 -2 -14 -11 -18 -11 -28 2 -6 9 -28 18 -50
22 -21 3 -41 8 -43 11 -3 3 -8 234 -11 514 l-5 510 24 5 c13 2 93 5 177 6
l152 1 0 -531z m1525 519 l96 5 -1 -530 -1 -531 -32 -7 c-18 -4 -39 -9 -47
-11 -113 -26 -128 -27 -174 -9 -25 10 -46 21 -46 25 0 4 -11 12 -23 17 l-24
11 -5 499 c-4 286 -2 505 3 515 10 19 63 26 121 17 21 -3 81 -4 133 -1z m2525
-508 c0 -429 -2 -520 -13 -520 -8 0 -22 -9 -32 -20 -10 -11 -30 -20 -44 -20
-15 0 -37 -7 -49 -16 -12 -8 -26 -13 -30 -10 -4 2 -40 6 -80 7 -62 3 -73 6
-79 24 -10 28 -14 212 -16 670 l-2 390 155 5 c85 3 163 7 173 8 16 2 17 -29
17 -518z m645 509 c11 1 52 3 90 4 l70 2 3 -537 2 -538 -26 0 c-14 0 -34 -5
-45 -10 -10 -6 -61 -12 -113 -13 -77 -2 -97 1 -113 16 -11 9 -27 17 -36 17
-16 0 -17 41 -17 530 l0 529 63 4 c34 2 71 2 82 -1 11 -2 29 -4 40 -3z m293
-1 c9 -9 21 -9 50 0 22 7 83 12 136 12 l96 0 0 -524 0 -525 -27 -19 c-66 -45
-157 -71 -188 -53 -5 3 -30 7 -55 9 -24 1 -50 8 -56 13 -19 16 -24 119 -30
621 l-5 466 23 5 c40 8 44 7 56 -5z m468 -4 c28 -4 50 -2 57 5 6 6 43 11 83
11 l72 0 7 -202 c3 -112 5 -349 3 -528 l-3 -325 -60 -20 c-33 -11 -66 -24 -72
-28 -7 -5 -18 -5 -23 -2 -6 4 -25 8 -43 11 -18 2 -47 6 -66 8 -19 3 -39 10
-44 15 -6 6 -19 11 -29 11 -17 0 -18 26 -18 531 l0 531 45 -6 c25 -3 66 -9 91
-12z m622 -506 l2 -517 -42 -12 c-55 -15 -57 -16 -93 -39 -47 -31 -54 -33 -69
-21 -8 6 -31 14 -52 17 -21 2 -43 9 -48 14 -6 6 -18 10 -28 10 -19 0 -19 -13
-19 495 0 63 0 219 1 345 l0 230 173 -2 172 -3 3 -517z m404 375 c7 -321 -3
-907 -15 -915 -7 -4 -25 -8 -41 -8 -16 0 -37 -7 -47 -16 -23 -20 -119 -22
-134 -1 -6 8 -33 21 -60 29 l-50 14 -3 509 c-1 281 0 516 3 523 3 9 48 12 174
12 l170 0 3 -147z m405 -270 c-2 -230 -7 -434 -11 -453 -4 -19 -3 -69 2 -110
11 -85 5 -105 -33 -108 -14 -1 -35 -7 -47 -13 -14 -7 -23 -8 -27 -1 -4 7 -20
7 -48 -1 -32 -8 -51 -8 -80 2 -21 7 -42 13 -48 13 -5 0 -22 9 -37 20 l-28 19
0 525 0 524 180 0 181 0 -4 -417z m406 403 c6 -16 -1 -1015 -8 -1026 -2 -4
-23 -10 -45 -14 -22 -3 -40 -10 -40 -15 0 -7 -83 -23 -120 -23 -44 1 -112 26
-124 45 -10 17 -13 133 -15 535 l-2 512 175 0 c137 0 175 -3 179 -14z m807
-493 l0 -508 -63 -28 c-53 -24 -70 -27 -123 -22 -64 6 -103 16 -144 36 l-25
12 -3 336 c-1 185 1 414 4 509 l6 172 174 0 174 0 0 -507z m-7699 405 c0 -51
2 -280 5 -508 l4 -415 -47 -28 c-26 -16 -55 -26 -65 -24 -11 3 -21 0 -24 -7
-5 -14 -94 -17 -94 -4 0 4 -8 7 -17 7 -35 -1 -98 14 -105 25 -4 6 -8 244 -8
529 l0 517 175 0 175 0 1 -92z m403 55 c3 -21 6 -260 6 -530 0 -476 -1 -493
-19 -493 -10 0 -24 -6 -30 -14 -7 -8 -21 -13 -32 -11 -10 2 -19 0 -19 -5 0 -5
-7 -7 -15 -4 -8 4 -21 2 -28 -3 -21 -16 -77 -14 -118 4 -21 9 -39 20 -39 25 0
4 -8 8 -19 8 -11 0 -21 9 -25 23 -3 12 -7 250 -9 530 l-4 507 172 0 172 0 7
-37z m414 -472 c2 -321 -1 -512 -7 -515 -5 -4 -28 1 -50 10 -27 11 -46 13 -54
7 -6 -5 -28 -10 -47 -12 -19 -1 -59 -14 -89 -28 -38 -19 -56 -23 -59 -15 -2 7
-15 12 -28 12 l-24 0 0 525 0 525 178 0 177 0 3 -509z m802 -13 l0 -523 -41
-34 c-24 -20 -56 -35 -77 -38 -20 -3 -45 -9 -54 -14 -12 -6 -18 -6 -18 0 0 6
-7 8 -15 5 -8 -4 -15 -1 -15 6 0 7 -8 9 -19 5 -11 -3 -22 -1 -26 5 -3 6 -10 8
-15 5 -5 -3 -23 4 -40 16 l-30 23 0 533 0 533 175 0 175 0 0 -522z m404 492
c3 -17 6 -250 6 -517 l1 -487 -23 -9 c-12 -4 -30 -15 -39 -23 -11 -10 -46 -16
-105 -19 -49 -3 -96 -6 -104 -7 -34 -3 -59 3 -74 18 -14 14 -16 77 -16 545 l0
529 174 0 174 0 6 -30z m409 -67 c9 -124 9 -886 1 -907 -3 -9 -12 -16 -19 -16
-6 0 -27 -7 -45 -17 -19 -9 -76 -20 -127 -24 -78 -7 -100 -5 -128 8 l-33 16
-4 506 c-2 285 1 511 6 519 6 9 53 12 176 12 l167 0 6 -97z m411 -403 c4 -275
5 -504 2 -509 -6 -9 -75 -44 -137 -69 -62 -25 -201 5 -213 46 -4 15 -11 1004
-7 1025 0 4 79 7 174 7 l174 0 7 -500z m404 77 c-3 -334 -7 -429 -18 -454 -12
-28 -12 -34 2 -50 18 -21 31 -130 17 -139 -5 -3 -25 -7 -44 -10 -19 -2 -50
-14 -70 -25 -37 -22 -63 -22 -120 2 -16 7 -43 14 -60 16 -62 7 -60 -18 -60
557 l-1 523 179 1 178 1 -3 -422z m645 410 c16 -2 30 0 33 5 3 4 34 8 70 8
l64 0 0 -529 0 -529 -42 -15 c-86 -31 -161 -37 -199 -17 -9 5 -28 11 -43 14
-16 3 -39 12 -52 21 l-24 15 0 504 c0 278 3 512 7 522 6 17 23 17 186 1z
m4609 -1750 c2 -62 1 -294 -2 -516 -4 -331 -7 -405 -19 -409 -7 -2 -22 -13
-31 -22 -10 -10 -20 -16 -23 -14 -4 4 -32 -1 -97 -17 -10 -3 -14 3 -13 14 0
11 -4 16 -12 13 -7 -2 -30 0 -51 5 -22 6 -47 11 -57 12 -43 5 -47 52 -46 567
l1 485 174 -3 173 -3 3 -112z m398 -397 l0 -520 -24 -10 c-13 -5 -27 -13 -30
-18 -3 -6 -15 -8 -25 -5 -10 3 -21 1 -24 -4 -3 -5 -38 -7 -79 -5 -40 2 -83 3
-95 3 -13 -1 -23 3 -23 7 0 5 -11 15 -25 22 l-25 13 0 501 c0 276 4 506 8 513
5 8 45 13 117 16 61 1 136 4 168 5 l57 2 0 -520z m398 512 c10 -7 12 -70 7
-308 -3 -164 -5 -399 -5 -520 l0 -221 -39 -6 c-22 -3 -54 -12 -70 -20 -41 -20
-194 -8 -219 17 -15 15 -17 67 -21 527 -2 392 0 513 9 524 10 12 43 15 169 15
86 0 162 -4 169 -8z m-11704 -63 c3 -34 6 -240 6 -457 0 -444 -6 -508 -50
-519 -14 -3 -30 -10 -36 -14 -6 -5 -48 -15 -93 -23 -74 -13 -87 -13 -127 2
l-44 16 0 523 0 522 43 4 c23 2 99 4 168 5 l126 2 7 -61z m10503 -461 c2 -409
0 -518 -10 -518 -7 0 -20 -9 -29 -19 -11 -13 -24 -18 -37 -14 -12 3 -21 1 -21
-5 0 -5 -21 -13 -47 -17 -27 -4 -51 -12 -55 -18 -5 -8 -8 -6 -8 6 0 9 -6 17
-12 18 -7 0 -20 2 -28 5 -8 2 -28 7 -45 10 -16 4 -36 11 -42 17 -10 7 -13 125
-13 528 l0 518 103 4 c56 2 134 3 172 3 l70 -1 2 -517z m-10105 20 c3 -271 4
-498 1 -505 -3 -7 -9 -10 -14 -7 -5 2 -18 0 -30 -7 -29 -15 -78 -18 -109 -6
-29 11 -135 13 -167 2 l-22 -7 -1 511 0 511 169 0 168 0 5 -492z m402 484 c2
-4 5 -210 6 -457 1 -530 -2 -556 -65 -585 -22 -11 -47 -19 -56 -20 -8 0 -19
-4 -25 -10 -6 -6 -31 -4 -69 6 -33 8 -76 18 -95 22 l-35 7 -6 255 c-9 364 -10
722 -3 759 l7 31 168 0 c92 0 170 -4 173 -8z m266 -2 c14 -1 50 2 81 5 l56 7
8 -527 c4 -289 4 -529 1 -532 -3 -4 -16 -8 -28 -9 -13 -1 -55 -10 -94 -18 -53
-11 -81 -13 -105 -5 -19 5 -50 9 -69 8 -19 0 -41 -1 -47 0 -10 1 -13 116 -13
542 l0 540 93 -5 c50 -3 103 -6 117 -6z m498 4 l52 -7 -2 -520 -3 -520 -52 -3
c-29 -1 -68 -10 -85 -19 -38 -18 -139 -22 -181 -6 -19 7 -27 18 -27 33 0 13
-2 244 -6 514 -3 270 -3 501 1 513 6 20 12 21 128 21 67 0 146 -3 175 -6z
m442 -139 c1 -77 3 -305 6 -507 l6 -368 -37 0 c-47 0 -126 -19 -145 -36 -12
-10 -31 -10 -92 -2 l-78 11 -2 514 c-2 283 0 517 4 521 4 4 82 8 173 7 l165 0
0 -140z m407 131 c5 -4 4 -996 -1 -1005 -3 -5 -27 -14 -53 -20 -27 -7 -63 -19
-82 -28 -27 -12 -44 -13 -85 -5 -28 5 -65 8 -82 5 -29 -5 -32 -3 -36 29 -3 18
-6 157 -7 308 -1 151 -3 375 -5 497 l-3 222 146 4 c126 2 200 0 208 -7z m3367
7 c4 -5 68 -6 142 -4 l134 3 0 -328 c0 -181 1 -412 2 -514 l1 -184 -34 -14
c-19 -8 -40 -19 -48 -25 -23 -19 -85 -37 -95 -27 -5 5 -17 5 -28 -1 -21 -11
-78 -3 -78 12 0 5 -6 9 -13 9 -8 0 -22 9 -33 21 -18 20 -19 44 -19 530 0 442
2 511 15 519 18 12 44 13 54 3z m1496 -507 c0 -490 -1 -503 -20 -521 -11 -10
-20 -15 -20 -11 0 3 -15 -1 -32 -11 -18 -10 -38 -18 -44 -18 -6 0 -23 -6 -37
-14 -15 -8 -33 -11 -44 -6 -10 5 -22 9 -28 10 -44 8 -76 20 -86 31 -6 8 -20
14 -30 14 -19 0 -19 16 -17 513 l3 512 170 5 c94 3 173 4 178 2 4 -2 7 -229 7
-506z m394 508 c14 -5 16 -62 16 -510 0 -443 -2 -504 -15 -504 -8 0 -23 -4
-33 -9 -48 -26 -120 -56 -141 -59 -36 -5 -117 17 -146 40 l-25 19 0 509 0 509
83 4 c167 6 246 7 261 1z m411 -494 c1 -272 -3 -500 -7 -506 -5 -7 -8 -16 -7
-20 4 -23 -4 -31 -33 -32 -50 -2 -83 -7 -99 -17 -26 -17 -60 -16 -107 1 -58
21 -92 57 -93 98 0 17 0 94 0 171 0 77 0 290 1 473 l0 332 173 -2 172 -3 0
-495z m405 4 c0 -322 -4 -502 -10 -515 -6 -10 -18 -19 -27 -19 -9 0 -26 -9
-38 -20 -22 -21 -101 -35 -110 -20 -3 5 -25 6 -49 4 -27 -4 -46 -2 -51 5 -3 6
-11 9 -16 6 -5 -4 -9 -1 -9 5 0 7 -6 10 -14 7 -20 -8 -24 65 -26 581 l-1 462
175 0 176 0 0 -496z m403 389 c3 -60 4 -281 1 -493 -3 -212 -5 -400 -4 -418 0
-18 -4 -31 -8 -28 -5 3 -27 -4 -49 -15 -52 -26 -90 -30 -122 -13 -14 8 -44 14
-66 14 -22 0 -45 4 -51 8 -13 9 -33 94 -32 142 0 19 -5 71 -12 115 -10 76 -13
753 -2 783 3 9 47 12 172 12 l167 0 6 -107z m407 -401 c0 -528 0 -532 -41
-532 -10 0 -24 -9 -32 -21 -9 -13 -17 -16 -22 -10 -9 15 -21 14 -40 -5 -23
-24 -82 -28 -149 -10 -32 9 -60 17 -62 18 -9 10 -5 117 5 137 10 18 10 33 1
69 -7 28 -11 123 -11 237 1 104 0 201 -1 215 -1 14 -1 112 0 218 l2 192 175 0
175 0 0 -508z m400 0 l0 -509 -27 -14 c-16 -7 -45 -24 -65 -37 -32 -21 -41
-23 -71 -13 -19 6 -42 9 -51 5 -9 -4 -24 0 -34 9 -11 10 -30 14 -54 12 -28 -3
-37 0 -38 13 -5 64 -9 930 -5 980 l7 62 169 0 169 0 0 -508z m400 456 c0 -29
0 -257 0 -507 l0 -454 -27 -23 c-17 -15 -31 -20 -38 -14 -12 10 -30 1 -37 -19
-2 -8 -11 -15 -19 -17 -85 -13 -99 -14 -99 -4 0 5 -11 10 -24 10 -14 0 -27 4
-31 10 -3 5 -12 7 -19 4 -26 -10 -41 28 -44 110 -2 45 -5 278 -7 519 l-3 437
174 0 174 0 0 -52z m-7277 -235 c9 -345 9 -681 1 -710 -5 -18 -14 -23 -37 -23
-17 0 -49 -11 -71 -24 -23 -13 -59 -27 -79 -31 -49 -10 -124 12 -143 40 -11
18 -15 114 -21 523 l-6 502 175 0 175 0 6 -277z m407 -233 c0 -438 -2 -510
-14 -510 -8 0 -37 -12 -63 -26 -41 -22 -56 -25 -98 -19 -67 9 -77 11 -98 20
-9 4 -28 4 -41 1 -14 -3 -27 -3 -30 2 -2 4 -8 240 -12 525 l-7 517 182 0 181
0 0 -510z m403 148 c2 -428 -2 -690 -11 -699 -10 -10 -142 -19 -142 -11 0 4
-4 13 -9 21 -7 10 -13 11 -31 1 -14 -7 -26 -8 -32 -2 -5 5 -26 6 -51 1 -86
-17 -77 -74 -77 521 l0 530 175 0 175 0 3 -362z m401 325 c3 -21 6 -255 6
-520 0 -449 -1 -483 -17 -491 -16 -8 -83 -25 -108 -27 -5 0 -16 -4 -22 -8 -7
-4 -32 -2 -55 4 -24 7 -51 11 -60 10 -10 -1 -18 2 -18 7 0 5 -10 7 -22 5 -51
-8 -50 -15 -52 443 -1 236 0 471 2 522 l3 92 168 0 168 0 7 -37z m406 -467 c0
-429 -2 -505 -15 -516 -8 -6 -19 -9 -25 -5 -5 3 -10 0 -10 -8 0 -16 -34 -25
-125 -33 -33 -2 -72 -6 -87 -7 -16 -2 -28 0 -28 5 0 5 -9 7 -19 3 -41 -13 -50
48 -20 123 12 30 12 36 -6 65 -18 30 -20 55 -23 440 -2 225 -1 415 2 423 4 11
38 14 181 14 l175 0 0 -504z m280 495 c8 -1 41 2 73 5 l57 6 0 -510 0 -510
-22 -6 c-13 -3 -33 -6 -45 -6 -12 0 -28 -7 -36 -15 -12 -11 -17 -12 -20 -2 -3
7 -6 4 -6 -6 -1 -10 -6 -15 -11 -12 -6 4 -19 4 -28 0 -28 -12 -84 -11 -89 1
-2 7 -13 10 -23 7 -10 -3 -27 0 -37 5 -37 20 -43 110 -43 597 l0 457 108 -6
c59 -3 114 -5 122 -5z m531 7 c0 -2 3 -228 6 -504 l6 -501 -34 -25 c-37 -27
-43 -29 -136 -32 -34 -1 -65 -5 -69 -9 -4 -4 -25 3 -48 14 -23 12 -48 25 -56
29 -20 9 -26 106 -9 138 10 18 10 32 1 68 -8 31 -12 163 -12 434 l0 390 175 0
c96 0 175 -1 176 -2z m409 -120 c0 -68 3 -294 7 -504 l6 -380 -34 -20 c-50
-30 -97 -45 -104 -33 -4 5 -12 6 -18 2 -22 -14 -110 -12 -138 2 -15 8 -37 15
-49 15 -20 0 -20 3 -20 395 0 228 -5 436 -11 494 -7 54 -9 111 -5 125 l6 26
180 0 180 0 0 -122z m810 -384 l0 -505 -32 -15 c-18 -9 -46 -22 -62 -31 -23
-12 -33 -13 -51 -3 -19 10 -27 9 -51 -6 -21 -14 -29 -15 -32 -6 -3 10 -7 10
-19 1 -11 -10 -16 -10 -22 -1 -3 6 -24 17 -46 24 l-40 13 0 350 c-1 193 1 425
3 518 l3 167 174 0 175 0 0 -506z m401 284 c2 -467 0 -799 -6 -808 -3 -6 -15
-10 -26 -10 -11 0 -17 -4 -14 -10 3 -5 0 -7 -8 -4 -7 2 -27 -1 -43 -7 -16 -7
-35 -11 -41 -10 -7 1 -13 -3 -13 -10 0 -9 -3 -9 -14 0 -7 6 -21 9 -30 5 -9 -3
-16 -1 -16 6 0 7 -8 9 -20 5 -11 -4 -20 -2 -20 4 0 6 -10 10 -22 10 -13 -1
-35 3 -50 9 l-28 12 0 513 0 513 175 2 175 3 1 -223z"/>
<path d="M7810 9402 c0 -5 10 -17 22 -28 l21 -19 -18 28 c-18 28 -25 33 -25
19z"/>
<path d="M8980 9093 c-17 -20 -26 -73 -13 -73 21 0 83 52 83 70 0 26 -49 27
-70 3z"/>
<path d="M11520 9440 c0 -5 5 -10 11 -10 5 0 7 5 4 10 -3 6 -8 10 -11 10 -2 0
-4 -4 -4 -10z"/>
<path d="M11465 8819 c-12 -19 5 -23 22 -6 16 16 16 17 1 17 -9 0 -20 -5 -23
-11z"/>
<path d="M11180 9492 c0 -5 7 -15 15 -22 8 -7 15 -8 15 -2 0 5 -7 15 -15 22
-8 7 -15 8 -15 2z"/>
<path d="M11755 9372 c3 -43 6 -48 15 -27 13 29 12 42 -3 48 -10 4 -13 -3 -12
-21z"/>
<path d="M11938 9053 c7 -3 16 -2 19 1 4 3 -2 6 -13 5 -11 0 -14 -3 -6 -6z"/>
<path d="M11875 9010 c3 -5 8 -10 11 -10 2 0 4 5 4 10 0 6 -5 10 -11 10 -5 0
-7 -4 -4 -10z"/>
<path d="M11862 8969 c2 -7 10 -15 17 -17 8 -3 12 1 9 9 -2 7 -10 15 -17 17
-8 3 -12 -1 -9 -9z"/>
<path d="M11895 8930 c-3 -5 -1 -10 4 -10 6 0 11 5 11 10 0 6 -2 10 -4 10 -3
0 -8 -4 -11 -10z"/>
<path d="M11940 8915 c7 -9 15 -13 17 -11 7 7 -7 26 -19 26 -6 0 -6 -6 2 -15z"/>
<path d="M11780 8529 c0 -5 5 -7 10 -4 6 3 10 8 10 11 0 2 -4 4 -10 4 -5 0
-10 -5 -10 -11z"/>
<path d="M12342 8990 c-7 -12 -10 -25 -7 -30 7 -12 35 -13 36 -2 0 4 2 17 3
30 3 28 -15 29 -32 2z"/>
<path d="M12260 8960 c0 -5 5 -10 10 -10 6 0 10 5 10 10 0 6 -4 10 -10 10 -5
0 -10 -4 -10 -10z"/>
<path d="M12270 8856 c0 -2 7 -7 16 -10 8 -3 12 -2 9 4 -6 10 -25 14 -25 6z"/>
<path d="M12295 8810 c-3 -5 3 -10 15 -10 12 0 18 5 15 10 -3 6 -10 10 -15 10
-5 0 -12 -4 -15 -10z"/>
<path d="M8225 8970 c-3 -5 1 -10 9 -10 9 0 16 5 16 10 0 6 -4 10 -9 10 -6 0
-13 -4 -16 -10z"/>
<path d="M9756 7124 c-7 -18 0 -34 15 -34 12 0 12 37 0 44 -5 3 -12 -1 -15
-10z"/>
<path d="M10950 7900 c0 -5 4 -10 9 -10 6 0 13 5 16 10 3 6 -1 10 -9 10 -9 0
-16 -4 -16 -10z"/>
<path d="M11108 7903 c7 -3 16 -2 19 1 4 3 -2 6 -13 5 -11 0 -14 -3 -6 -6z"/>
<path d="M10970 7730 c0 -6 7 -10 15 -10 8 0 15 2 15 4 0 2 -7 6 -15 10 -8 3
-15 1 -15 -4z"/>
<path d="M11005 7370 c3 -5 8 -10 11 -10 2 0 4 5 4 10 0 6 -5 10 -11 10 -5 0
-7 -4 -4 -10z"/>
<path d="M11775 7509 c-11 -16 -2 -17 25 -2 24 12 24 13 3 13 -12 0 -25 -5
-28 -11z"/>
<path d="M11829 7513 c0 -4 -2 -18 -3 -30 -1 -12 1 -20 6 -17 5 4 7 12 4 19
-3 8 0 15 7 18 8 2 8 5 -1 11 -7 4 -12 4 -13 -1z"/>
<path d="M12205 7840 c-3 -5 -1 -10 4 -10 6 0 11 5 11 10 0 6 -2 10 -4 10 -3
0 -8 -4 -11 -10z"/>
<path d="M12275 7730 c-3 -5 -1 -10 4 -10 6 0 11 5 11 10 0 6 -2 10 -4 10 -3
0 -8 -4 -11 -10z"/>
<path d="M12140 7456 c0 -2 7 -6 15 -10 8 -3 15 -1 15 4 0 6 -7 10 -15 10 -8
0 -15 -2 -15 -4z"/>
<path d="M12350 7400 c0 -11 -4 -20 -10 -20 -5 0 -10 -4 -10 -10 0 -13 23 -13
37 1 12 12 6 49 -8 49 -5 0 -9 -9 -9 -20z"/>
<path d="M12360 7340 c0 -5 5 -10 11 -10 5 0 7 5 4 10 -3 6 -8 10 -11 10 -2 0
-4 -4 -4 -10z"/>
<path d="M12220 7160 c0 -5 5 -10 10 -10 6 0 10 5 10 10 0 6 -4 10 -10 10 -5
0 -10 -4 -10 -10z"/>
<path d="M12185 7030 c3 -5 16 -10 28 -9 21 0 21 1 2 9 -28 12 -37 12 -30 0z"/>
<path d="M3655 6080 c4 -6 11 -8 16 -5 14 9 11 15 -7 15 -8 0 -12 -5 -9 -10z"/>
<path d="M5110 5879 c0 -5 5 -7 10 -4 6 3 10 8 10 11 0 2 -4 4 -10 4 -5 0 -10
-5 -10 -11z"/>
<path d="M12615 9571 c-3 -5 -1 -12 5 -16 5 -3 10 1 10 9 0 18 -6 21 -15 7z"/>
<path d="M12753 9475 c-45 -19 -60 -51 -37 -77 10 -11 14 -19 9 -18 -23 5 -35
-1 -35 -16 0 -8 -5 -12 -10 -9 -11 7 -40 -12 -40 -25 0 -5 9 -6 20 -3 11 3 26
0 33 -6 10 -8 22 -7 45 1 38 14 51 5 33 -24 -11 -18 -11 -20 4 -14 9 3 19 6
21 6 2 0 4 45 4 100 0 55 -3 100 -7 100 -5 -1 -22 -7 -40 -15z"/>
<path d="M12610 9395 c-10 -12 -10 -19 -2 -27 14 -14 45 -2 39 16 -3 8 -1 17
6 20 7 2 2 5 -9 5 -12 1 -27 -6 -34 -14z"/>
<path d="M12515 9280 c3 -5 10 -10 16 -10 5 0 9 5 9 10 0 6 -7 10 -16 10 -8 0
-12 -4 -9 -10z"/>
<path d="M12685 9220 c-3 -6 1 -7 9 -4 18 7 21 14 7 14 -6 0 -13 -4 -16 -10z"/>
<path d="M12750 9220 c0 -5 7 -10 15 -10 8 0 15 5 15 10 0 6 -7 10 -15 10 -8
0 -15 -4 -15 -10z"/>
<path d="M12540 9190 c0 -6 7 -10 15 -10 8 0 15 2 15 4 0 2 -7 6 -15 10 -8 3
-15 1 -15 -4z"/>
<path d="M12625 9090 c3 -5 11 -10 16 -10 6 0 7 5 4 10 -3 6 -11 10 -16 10 -6
0 -7 -4 -4 -10z"/>
<path d="M12767 9059 c7 -7 15 -10 18 -7 3 3 -2 9 -12 12 -14 6 -15 5 -6 -5z"/>
<path d="M12585 9049 c-10 -15 3 -25 16 -12 7 7 7 13 1 17 -6 3 -14 1 -17 -5z"/>
<path d="M12674 9046 c-18 -14 -18 -15 10 -26 24 -9 32 -8 45 5 14 13 14 15
-2 15 -9 0 -17 5 -17 10 0 14 -13 12 -36 -4z"/>
<path d="M12760 9025 c-11 -13 -10 -14 4 -9 9 3 16 10 16 15 0 13 -6 11 -20
-6z"/>
<path d="M12753 9003 c-18 -7 -16 -23 2 -23 8 0 15 -4 15 -10 0 -5 7 -7 15 -4
21 9 19 44 -2 43 -10 0 -24 -3 -30 -6z"/>
<path d="M12557 8964 c-6 -6 4 -54 12 -54 3 0 12 4 20 9 9 6 10 11 2 15 -6 4
-9 11 -6 16 5 8 -20 22 -28 14z"/>
<path d="M12791 8934 c0 -11 3 -14 6 -6 3 7 2 16 -1 19 -3 4 -6 -2 -5 -13z"/>
<path d="M12644 8930 c-23 -9 -42 -30 -27 -30 4 0 19 9 33 20 27 21 26 23 -6
10z"/>
<path d="M12575 8860 c3 -5 11 -10 16 -10 6 0 7 5 4 10 -3 6 -11 10 -16 10 -6
0 -7 -4 -4 -10z"/>
<path d="M12720 8860 c0 -5 5 -10 11 -10 5 0 7 5 4 10 -3 6 -8 10 -11 10 -2 0
-4 -4 -4 -10z"/>
<path d="M12778 8837 c-10 -8 -13 -18 -9 -26 5 -7 6 -21 4 -31 -3 -10 2 -20
11 -23 13 -5 16 2 16 43 0 28 -1 50 -2 50 -2 0 -11 -6 -20 -13z"/>
<path d="M12622 8815 c-10 -11 -10 -15 -1 -15 7 0 9 -3 6 -7 -4 -3 -2 -12 4
-19 9 -11 13 -11 25 1 18 18 18 29 0 22 -20 -8 -28 4 -15 20 15 18 -3 16 -19
-2z"/>
<path d="M12600 7670 c0 -5 5 -10 11 -10 5 0 7 5 4 10 -3 6 -8 10 -11 10 -2 0
-4 -4 -4 -10z"/>
<path d="M12610 7610 c0 -5 5 -10 10 -10 6 0 10 5 10 10 0 6 -4 10 -10 10 -5
0 -10 -4 -10 -10z"/>
<path d="M12620 7555 c0 -9 5 -15 11 -13 6 2 11 8 11 13 0 5 -5 11 -11 13 -6
2 -11 -4 -11 -13z"/>
<path d="M12770 7490 c0 -5 5 -10 10 -10 6 0 10 5 10 10 0 6 -4 10 -10 10 -5
0 -10 -4 -10 -10z"/>
<path d="M12545 7280 c-3 -5 -1 -10 4 -10 6 0 11 5 11 10 0 6 -2 10 -4 10 -3
0 -8 -4 -11 -10z"/>
<path d="M12770 7250 c0 -5 5 -10 11 -10 5 0 7 5 4 10 -3 6 -8 10 -11 10 -2 0
-4 -4 -4 -10z"/>
<path d="M12585 7160 c-3 -5 -1 -10 4 -10 6 0 11 5 11 10 0 6 -2 10 -4 10 -3
0 -8 -4 -11 -10z"/>
</g>
</svg>
